<svg width="18" height="25" viewBox="0 0 18 25" fill="none" xmlns="http://www.w3.org/2000/svg">
<path d="M9 1.78571C9.89002 1.78571 10.76 2.04754 11.5001 2.53808C12.2401 3.02862 12.8169 3.72585 13.1575 4.54159C13.4981 5.35733 13.5872 6.25495 13.4135 7.12094C13.2399 7.98693 12.8113 8.78238 12.182 9.40673C11.5526 10.0311 10.7508 10.4563 9.87791 10.6285C9.00499 10.8008 8.10019 10.7124 7.27792 10.3745C6.45566 10.0366 5.75285 9.46437 5.25839 8.73022C4.76392 7.99608 4.5 7.13295 4.5 6.25C4.5 5.066 4.97411 3.93049 5.81802 3.09327C6.66193 2.25606 7.80653 1.78571 9 1.78571ZM9 0C7.75398 0 6.53594 0.366556 5.49991 1.05331C4.46388 1.74007 3.65639 2.71619 3.17956 3.85823C2.70273 5.00027 2.57797 6.25693 2.82105 7.46931C3.06414 8.6817 3.66416 9.79534 4.54523 10.6694C5.4263 11.5435 6.54885 12.1388 7.77093 12.3799C8.99301 12.6211 10.2597 12.4973 11.4109 12.0242C12.5621 11.5512 13.546 10.7501 14.2383 9.72231C14.9305 8.69451 15.3 7.48613 15.3 6.25C15.3 4.5924 14.6363 3.00268 13.4548 1.83058C12.2733 0.65848 10.6709 0 9 0ZM18 25H16.2V20.5357C16.2 19.3517 15.7259 18.2162 14.882 17.379C14.0381 16.5418 12.8935 16.0714 11.7 16.0714H6.3C5.10653 16.0714 3.96193 16.5418 3.11802 17.379C2.27411 18.2162 1.8 19.3517 1.8 20.5357V25H0V20.5357C0 18.8781 0.663748 17.2884 1.84523 16.1163C3.02671 14.9442 4.62914 14.2857 6.3 14.2857H11.7C13.3709 14.2857 14.9733 14.9442 16.1548 16.1163C17.3363 17.2884 18 18.8781 18 20.5357V25Z" fill="#60C300"/>
</svg>
