<svg width="19" height="20" viewBox="0 0 19 20" fill="none" xmlns="http://www.w3.org/2000/svg">
<path d="M15.8306 19.1976C14.603 20.253 13.2626 20.0864 11.9723 19.5864C10.6068 19.0754 9.35411 19.0532 7.91349 19.5864C6.10958 20.2752 5.15752 20.0752 4.08019 19.1976C-2.03306 13.6094 -1.1311 5.09936 5.80893 4.78828C7.50009 4.86605 8.67764 5.6104 9.66729 5.67706C11.1455 5.41043 12.5611 4.64386 14.1395 4.74385C16.0311 4.87716 17.4592 5.54374 18.3987 6.74359C14.4902 8.82111 15.4172 13.3872 19 14.6648C18.286 16.3313 17.3589 17.9866 15.8181 19.2087L15.8306 19.1976ZM9.54202 4.72163C9.35411 2.24416 11.6215 0.199975 14.2272 0C14.5905 2.8663 11.2958 4.99937 9.54202 4.72163Z" fill="black"/>
</svg>
