<svg width="102" height="57" viewBox="0 0 102 57" fill="none" xmlns="http://www.w3.org/2000/svg">
<ellipse cx="6.80044" cy="38.5416" rx="5.79995" ry="1.68386" fill="#31384F" stroke="#3C4666" stroke-width="2"/>
<ellipse cx="95.1095" cy="38.5416" rx="5.79995" ry="1.68386" fill="#31384F" stroke="#3C4666" stroke-width="2"/>
<ellipse cx="28.4958" cy="54.1184" rx="5.79995" ry="1.68386" fill="#31384F" stroke="#212434" stroke-width="2"/>
<ellipse cx="70.0392" cy="53.8834" rx="5.79995" ry="1.68386" fill="#31384F" stroke="#3C4666" stroke-width="2"/>
<ellipse cx="73.7806" cy="35.1739" rx="3.929" ry="1.30967" fill="#31384F" stroke="#3C4666" stroke-width="2"/>
<ellipse cx="27.0071" cy="34.7997" rx="3.929" ry="1.30967" fill="#31384F" stroke="#3C4666" stroke-width="2"/>
<ellipse cx="50.2064" cy="39.6642" rx="20.3934" ry="3.18062" fill="#31384F" stroke="#3C4666" stroke-width="2"/>
<path d="M50.0728 41.9093C35.5542 42.3584 32.0493 40.1007 32.1117 38.9158C33.6085 38.1674 33.4214 36.2965 32.1117 34.0513C31.0639 32.2552 32.5482 29.6858 33.4214 28.6256C32.1741 26.5052 30.0162 20.7676 31.3633 14.7805C33.4588 3.85416 44.7094 0.37419 50.0728 0V41.9093Z" fill="#5C2095"/>
<path d="M50.0728 41.9093C64.5914 42.3584 68.0963 40.1007 68.034 38.9158C66.5372 38.1674 66.7243 36.2965 68.034 34.0513C69.0817 32.2552 67.5974 29.6858 66.7243 28.6256C67.9716 26.5052 70.1294 20.7676 68.7823 14.7805C66.6869 3.85416 55.4362 0.37419 50.0728 0V41.9093Z" fill="#5C2095"/>
<mask id="mask0_20_576" style="mask-type:alpha" maskUnits="userSpaceOnUse" x="30" y="0" width="40" height="42">
<path d="M50.0728 41.9093C35.5542 42.3584 32.0493 40.1007 32.1117 38.9158C33.6085 38.1674 33.4214 36.2965 32.1117 34.0513C31.0639 32.2552 32.5482 29.6858 33.4214 28.6256C32.1741 26.5052 30.0162 20.7676 31.3633 14.7805C33.4588 3.85416 44.7094 0.37419 50.0728 0V41.9093Z" fill="#5C2095"/>
<path d="M50.0728 41.9093C64.5914 42.3584 68.0963 40.1007 68.034 38.9158C66.5372 38.1674 66.7243 36.2965 68.034 34.0513C69.0817 32.2552 67.5974 29.6858 66.7243 28.6256C67.9716 26.5052 70.1294 20.7676 68.7823 14.7805C66.6869 3.85416 55.4362 0.37419 50.0728 0V41.9093Z" fill="#5C2095"/>
</mask>
<g mask="url(#mask0_20_576)">
<circle cx="39.3559" cy="5.61286" r="2.05805" fill="#954A83"/>
<circle cx="43.4713" cy="7.10959" r="1.30967" fill="#954A83"/>
<circle cx="37.8585" cy="9.35477" r="1.30967" fill="#954A83"/>
<circle cx="0.561286" cy="0.561286" r="0.561286" transform="matrix(-1 0 0 1 41.7876 8.0451)" fill="#954A83"/>
<circle cx="0.187095" cy="0.187095" r="0.187095" transform="matrix(-1 0 0 1 43.6587 5.05157)" fill="#954A83"/>
<circle cx="0.187095" cy="0.187095" r="0.187095" transform="matrix(-1 0 0 1 43.6587 3.55481)" fill="#954A83"/>
<circle cx="0.561286" cy="0.561286" r="0.561286" transform="matrix(-1 0 0 1 36.9229 11.4128)" fill="#954A83"/>
<circle cx="0.561286" cy="0.561286" r="0.561286" transform="matrix(-1 0 0 1 39.917 10.6644)" fill="#954A83"/>
<path d="M65.9232 13.2838C49.0098 4.75222 37.4224 12.2236 33.7429 17.0257C32.1214 19.8945 28.6164 27.8398 27.5687 36.6707C26.521 45.5016 54.4481 44.8405 68.5426 43.4061C74.7167 36.9201 82.8367 21.8153 65.9232 13.2838Z" fill="#58218C"/>
<path d="M35.8008 42.4706C40.7276 40.1631 53.3877 37.0449 64.6134 43.0319C64.0147 43.6306 45.1555 42.9072 35.8008 42.4706Z" fill="#5E2A8E"/>
<path d="M63.6775 23.1998C53.4995 27.2411 38.6067 21.5159 32.4326 18.1482L32.0584 17.774C30.3122 17.6493 27.3062 19.0463 29.252 25.632C31.1977 32.2178 53.8862 32.7417 64.9871 32.1804C68.7914 27.503 73.8555 19.1585 63.6775 23.1998Z" fill="#542481"/>
<path d="M44.4067 -0.374223C39.6046 3.05586 31.3849 11.787 36.9229 19.2708C38.7939 21.8901 35.052 23.3869 37.4842 25.4449C39.2153 26.9097 40.1882 28.8483 42.5614 30.3165C43.9486 30.8161 45.2379 31.3425 46.2777 31.8062C44.7136 31.4286 43.5226 30.9111 42.5614 30.3165C37.7916 28.5986 31.8635 27.1972 30.9359 29.7481C29.7385 33.041 29.1897 18.7719 29.0649 11.2257C31.8714 7.7956 37.5965 0.935444 38.0455 0.935444C38.4945 0.935444 42.224 -0.187127 44.0326 -0.748413L44.4067 -0.374223Z" fill="#4F227A"/>
<path d="M55.6323 -0.187089C60.4344 3.24299 68.6541 11.9741 63.1161 19.4579C61.2452 22.0772 64.9871 23.574 62.5548 25.6321C60.8238 27.0968 59.8509 29.0354 57.4777 30.5036C56.0904 31.0032 54.8012 31.5296 53.7614 31.9933C55.3255 31.6157 56.5164 31.0983 57.4777 30.5036C62.2475 28.7857 68.1755 27.3843 69.1032 29.9352C70.3006 33.2281 70.8494 18.959 70.9741 11.4128C68.1677 7.98274 62.4426 1.12258 61.9935 1.12258C61.5445 1.12258 57.8151 6.49691e-06 56.0065 -0.561279L55.6323 -0.187089Z" fill="#4F227A"/>
<circle cx="0.561286" cy="0.561286" r="0.561286" transform="matrix(-1 0 0 1 43.2842 10.2902)" fill="#954A83"/>
<circle cx="0.561286" cy="0.561286" r="0.561286" transform="matrix(-1 0 0 1 42.1616 2.8064)" fill="#954A83"/>
<circle cx="0.935476" cy="0.935476" r="0.935476" transform="matrix(-1 0 0 1 42.9102 12.1612)" fill="#954A83"/>
<circle cx="0.935476" cy="0.935476" r="0.935476" transform="matrix(-1 0 0 1 43.6587 0.561279)" fill="#954A83"/>
<circle cx="0.935476" cy="0.935476" r="0.935476" transform="matrix(-1 0 0 1 38.7944 12.9095)" fill="#954A83"/>
<circle cx="0.187095" cy="0.187095" r="0.187095" transform="matrix(-1 0 0 1 36.1748 13.2838)" fill="#954A83"/>
<circle cx="0.187095" cy="0.187095" r="0.187095" transform="matrix(-1 0 0 1 42.5356 5.05157)" fill="#954A83"/>
<circle cx="0.187095" cy="0.187095" r="0.187095" transform="matrix(-1 0 0 1 36.1748 15.1547)" fill="#954A83"/>
</g>
<path d="M34.304 26.0062C34.304 26.0062 44.9684 31.8062 50.02 31.8062V37.6061C40.6652 37.2319 35.2395 40.2255 35.2395 40.2255C35.2395 40.2255 33.5665 36.0963 33.3685 33.3029C33.1654 30.4373 34.304 26.0062 34.304 26.0062Z" fill="#3E304A"/>
<path d="M65.736 26.0062C65.736 26.0062 55.6328 32.1804 50.02 31.8062V37.6061C59.3748 37.2319 64.8005 40.2255 64.8005 40.2255C64.8005 40.2255 66.4734 36.0963 66.6714 33.3029C66.8745 30.4373 65.736 26.0062 65.736 26.0062Z" fill="#3E304A"/>
<mask id="mask1_20_576" style="mask-type:alpha" maskUnits="userSpaceOnUse" x="33" y="26" width="34" height="15">
<path d="M34.304 26.0062C34.304 26.0062 44.9684 31.8062 50.02 31.8062V37.6061C40.6652 37.2319 35.2395 40.2255 35.2395 40.2255C35.2395 40.2255 33.5665 36.0963 33.3685 33.3029C33.1654 30.4373 34.304 26.0062 34.304 26.0062Z" fill="#3E304A"/>
<path d="M65.736 26.0062C65.736 26.0062 55.6328 32.1804 50.02 31.8062V37.6061C59.3748 37.2319 64.8005 40.2255 64.8005 40.2255C64.8005 40.2255 66.4734 36.0963 66.6714 33.3029C66.8745 30.4373 65.736 26.0062 65.736 26.0062Z" fill="#3E304A"/>
</mask>
<g mask="url(#mask1_20_576)">
<path d="M39.3554 30.8707C35.9128 29.5236 33.5554 32.0556 32.8071 33.49L32.62 33.6771L31.8716 32.1804L33.7425 24.1353L50.2069 30.4965V36.1094C50.2069 36.1094 56.194 35.1739 49.6456 36.1094C43.0973 37.0448 43.6586 32.5545 39.3554 30.8707Z" fill="#3A2A47"/>
<path d="M60.8713 30.8707C64.3139 29.5236 66.6713 32.0556 67.4197 33.49L67.6068 33.6771L68.3552 32.1804L66.4842 24.1353L50.0198 30.4965V36.1094C50.0198 36.1094 44.0328 35.1739 50.5811 36.1094C57.1294 37.0448 56.5682 32.5545 60.8713 30.8707Z" fill="#3A2A47"/>
</g>
<path d="M43.4386 35.7196C42.4226 33.3174 39.3621 29.1504 35.2487 31.6995C35.374 33.7741 37.1874 37.4825 43.4386 35.7196Z" fill="#372B41"/>
<path d="M42.719 35.2895C41.8862 33.3644 39.3639 30.0307 35.9376 32.0967C36.0323 33.7626 37.5213 36.7335 42.719 35.2895Z" fill="#C09808"/>
<path d="M56.7704 35.7196C57.7864 33.3174 60.8469 29.1504 64.9603 31.6995C64.835 33.7741 63.0216 37.4825 56.7704 35.7196Z" fill="#372B41"/>
<path d="M57.49 35.2895C58.3228 33.3644 60.8451 30.0307 64.2714 32.0967C64.1767 33.7626 62.6877 36.7335 57.49 35.2895Z" fill="#C09808"/>
<path d="M43.4386 36.1291C42.4226 33.727 39.3621 29.56 35.2487 32.1091C35.374 34.1836 37.1874 37.892 43.4386 36.1291Z" fill="#302639"/>
<path d="M42.719 35.699C41.8862 33.7739 39.3639 30.4402 35.9376 32.5062C36.0323 34.1722 37.5213 37.143 42.719 35.699Z" fill="#120F02"/>
<path d="M56.7704 36.1291C57.7864 33.727 60.8469 29.56 64.9603 32.1091C64.835 34.1836 63.0216 37.892 56.7704 36.1291Z" fill="#302639"/>
<path d="M57.49 35.699C58.3228 33.7739 60.8451 30.4402 64.2714 32.5062C64.1767 34.1722 62.6877 37.143 57.49 35.699Z" fill="#120F02"/>
<path d="M43.4386 35.7196C42.4226 33.3174 39.3621 29.1504 35.2487 31.6995C35.374 33.7741 37.1874 37.4825 43.4386 35.7196Z" fill="#372B41"/>
<path d="M42.719 35.2895C41.8862 33.3644 39.3639 30.0307 35.9376 32.0967C36.0323 33.7626 37.5213 36.7335 42.719 35.2895Z" fill="#C09808"/>
<path d="M56.7704 35.7196C57.7864 33.3174 60.8469 29.1504 64.9603 31.6995C64.835 33.7741 63.0216 37.4825 56.7704 35.7196Z" fill="#372B41"/>
<path d="M57.49 35.2895C58.3228 33.3644 60.8451 30.0307 64.2714 32.0967C64.1767 33.7626 62.6877 36.7335 57.49 35.2895Z" fill="#C09808"/>
<path d="M29.269 34.9939C27.079 35.9575 24.9985 35.3954 24.2319 34.9939C24.4144 34.3004 25.6555 33.5703 25.2175 31.2708C24.8994 29.6009 17.2346 25.4229 18.3188 20.9776C19.4138 16.488 26.0935 17.2545 26.5315 19.9921C26.8819 22.1821 25.2905 22.8756 24.4509 22.9486C25.765 21.866 25.8745 18.8971 23.1369 19.7731C19.6329 21.6346 23.4654 24.7007 27.079 27.2192C30.6926 29.7378 29.3785 34.8844 29.269 34.9939Z" fill="#431D67"/>
<mask id="mask2_20_576" style="mask-type:alpha" maskUnits="userSpaceOnUse" x="18" y="17" width="12" height="19">
<path d="M29.269 34.9939C27.079 35.9575 24.9985 35.3954 24.2319 34.9939C24.4144 34.3004 25.6555 33.5703 25.2175 31.2708C24.8994 29.6009 17.2346 25.4229 18.3188 20.9776C19.4138 16.488 26.0935 17.2545 26.5315 19.9921C26.8819 22.1821 25.2905 22.8756 24.4509 22.9486C25.765 21.866 25.8745 18.8971 23.1369 19.7731C19.6329 21.6346 23.4654 24.7007 27.079 27.2192C30.6926 29.7378 29.3785 34.8844 29.269 34.9939Z" fill="#5C2095"/>
</mask>
<g mask="url(#mask2_20_576)">
<ellipse cx="29.0542" cy="34.0898" rx="0.54751" ry="0.328506" transform="rotate(-11.6558 29.0542 34.0898)" fill="#623557"/>
<ellipse cx="29.0884" cy="32.1793" rx="0.54751" ry="0.328506" transform="rotate(6.56946 29.0884 32.1793)" fill="#623557"/>
<ellipse cx="27.5556" cy="30.4273" rx="0.54751" ry="0.328506" transform="rotate(6.56946 27.5556 30.4273)" fill="#623557"/>
<ellipse cx="28.2683" cy="29.2695" rx="0.54751" ry="0.328506" transform="rotate(-27.6861 28.2683 29.2695)" fill="#623557"/>
<ellipse cx="26.5609" cy="29.0567" rx="0.773633" ry="0.46418" transform="rotate(-27.6861 26.5609 29.0567)" fill="#623557"/>
<ellipse cx="27.0964" cy="27.5196" rx="0.715804" ry="0.429483" transform="rotate(-10.0077 27.0964 27.5196)" fill="#623557"/>
<ellipse cx="25.0518" cy="27.7524" rx="0.44753" ry="0.268518" transform="rotate(-10.0077 25.0518 27.7524)" fill="#623557"/>
<ellipse cx="24.9889" cy="27.1163" rx="0.188456" ry="0.113074" transform="rotate(-10.0077 24.9889 27.1163)" fill="#623557"/>
<ellipse cx="24.7697" cy="26.4593" rx="0.188456" ry="0.113074" transform="rotate(-10.0077 24.7697 26.4593)" fill="#623557"/>
<ellipse cx="26.0846" cy="28.4303" rx="0.188456" ry="0.113074" transform="rotate(-10.0077 26.0846 28.4303)" fill="#623557"/>
<ellipse cx="26.0846" cy="27.3353" rx="0.188456" ry="0.113074" transform="rotate(-10.0077 26.0846 27.3353)" fill="#623557"/>
<ellipse cx="25.71" cy="26.4384" rx="0.44753" ry="0.268518" transform="rotate(-10.0077 25.71 26.4384)" fill="#623557"/>
<ellipse cx="23.9743" cy="26.9166" rx="0.44753" ry="0.268518" transform="rotate(-16.1508 23.9743 26.9166)" fill="#623557"/>
<ellipse cx="24.5803" cy="25.4577" rx="0.790578" ry="0.474347" transform="rotate(-16.1508 24.5803 25.4577)" fill="#623557"/>
<ellipse cx="23.31" cy="24.1135" rx="0.790578" ry="0.474347" transform="rotate(-5.44346 23.31 24.1135)" fill="#623557"/>
<ellipse cx="22.1997" cy="22.5655" rx="0.790578" ry="0.474347" transform="rotate(-5.44346 22.1997 22.5655)" fill="#623557"/>
<ellipse cx="21.8933" cy="21.3873" rx="0.641449" ry="0.384869" transform="rotate(-5.44346 21.8933 21.3873)" fill="#623557"/>
<ellipse cx="22.246" cy="20.3878" rx="0.641449" ry="0.384869" transform="rotate(28.2645 22.246 20.3878)" fill="#623557"/>
<ellipse cx="20.7133" cy="19.2928" rx="0.641449" ry="0.384869" transform="rotate(28.2645 20.7133 19.2928)" fill="#623557"/>
<ellipse cx="22.6091" cy="26.1147" rx="0.790578" ry="0.474347" transform="rotate(-16.1508 22.6091 26.1147)" fill="#623557"/>
<ellipse cx="21.251" cy="24.3929" rx="0.790578" ry="0.474347" transform="rotate(-5.44346 21.251 24.3929)" fill="#623557"/>
<ellipse cx="20.1411" cy="22.8449" rx="0.790578" ry="0.474347" transform="rotate(-5.44346 20.1411 22.8449)" fill="#623557"/>
<ellipse cx="19.9937" cy="21.1151" rx="0.790578" ry="0.474347" transform="rotate(19.6923 19.9937 21.1151)" fill="#623557"/>
<ellipse cx="23.3545" cy="25.0264" rx="0.285826" ry="0.171496" transform="rotate(-16.1508 23.3545 25.0264)" fill="#623557"/>
<ellipse cx="22.1856" cy="23.4619" rx="0.285826" ry="0.171496" transform="rotate(-5.44346 22.1856 23.4619)" fill="#623557"/>
<ellipse cx="21.1426" cy="23.228" rx="0.285826" ry="0.171496" transform="rotate(-5.44346 21.1426 23.228)" fill="#623557"/>
<ellipse cx="20.9239" cy="22.1329" rx="0.285826" ry="0.171496" transform="rotate(-5.44346 20.9239 22.1329)" fill="#623557"/>
<ellipse cx="21.0053" cy="20.8031" rx="0.285826" ry="0.171496" transform="rotate(19.6923 21.0053 20.8031)" fill="#623557"/>
<ellipse cx="21.8556" cy="19.4283" rx="0.285826" ry="0.259039" transform="rotate(19.6923 21.8556 19.4283)" fill="#623557"/>
<ellipse cx="22.2935" cy="18.3333" rx="0.448392" ry="0.406369" transform="rotate(19.6923 22.2935 18.3333)" fill="#623557"/>
<ellipse cx="23.3721" cy="19.6218" rx="0.448392" ry="0.406369" transform="rotate(19.6923 23.3721 19.6218)" fill="#623557"/>
<ellipse cx="23.8016" cy="18.7478" rx="0.266141" ry="0.241199" transform="rotate(19.6923 23.8016 18.7478)" fill="#623557"/>
<ellipse cx="24.8968" cy="18.5288" rx="0.266141" ry="0.241199" transform="rotate(19.6923 24.8968 18.5288)" fill="#623557"/>
<ellipse cx="24.4589" cy="19.6238" rx="0.266141" ry="0.241199" transform="rotate(19.6923 24.4589 19.6238)" fill="#623557"/>
<ellipse cx="25.1156" cy="19.4048" rx="0.266141" ry="0.241199" transform="rotate(19.6923 25.1156 19.4048)" fill="#623557"/>
<ellipse cx="25.1156" cy="20.2808" rx="0.266141" ry="0.241199" transform="rotate(19.6923 25.1156 20.2808)" fill="#623557"/>
<ellipse cx="25.6171" cy="19.9129" rx="0.141045" ry="0.127826" transform="rotate(19.6923 25.6171 19.9129)" fill="#623557"/>
<ellipse cx="26.0551" cy="20.789" rx="0.141045" ry="0.127826" transform="rotate(19.6923 26.0551 20.789)" fill="#623557"/>
<ellipse cx="25.3978" cy="21.008" rx="0.141045" ry="0.127826" transform="rotate(19.6923 25.3978 21.008)" fill="#623557"/>
<ellipse cx="25.6171" cy="21.665" rx="0.141045" ry="0.127826" transform="rotate(19.6923 25.6171 21.665)" fill="#623557"/>
<ellipse cx="25.1791" cy="22.103" rx="0.141045" ry="0.127826" transform="rotate(19.6923 25.1791 22.103)" fill="#623557"/>
<ellipse cx="24.9598" cy="22.541" rx="0.141045" ry="0.127826" transform="rotate(19.6923 24.9598 22.541)" fill="#623557"/>
<ellipse cx="27.9899" cy="32.2491" rx="0.337604" ry="0.202562" transform="rotate(6.56946 27.9899 32.2491)" fill="#623557"/>
<ellipse cx="28.6707" cy="30.1133" rx="0.337604" ry="0.202562" transform="rotate(-17.3536 28.6707 30.1133)" fill="#623557"/>
<ellipse cx="28.1805" cy="33.156" rx="0.897377" ry="0.538427" transform="rotate(-11.6558 28.1805 33.156)" fill="#623557"/>
<ellipse cx="29.0428" cy="31.1561" rx="0.897377" ry="0.538427" transform="rotate(9.54376 29.0428 31.1561)" fill="#623557"/>
<path d="M26.1966 29.9288C27.861 31.5056 26.7441 34.3089 25.9776 35.5134L23.2401 35.1849C24.5176 34.6009 26.2185 32.732 22.8021 29.9288C19.3856 27.1256 18.2395 23.8697 18.0935 22.5922C17.984 21.4971 18.3344 18.453 21.488 17.6646C24.6417 16.8762 26.1236 18.7596 26.5251 20.0736C25.9776 18.5771 23.919 16.7229 20.5025 19.0881C16.2319 22.0447 24.1161 27.9578 26.1966 29.9288Z" fill="#34194C"/>
</g>
<path d="M22.7341 17.8947C21.7803 17.8418 19.662 18.253 18.8198 20.3216C19.2566 19.674 20.651 18.2819 22.7341 17.8947Z" fill="#441E69"/>
<path d="M71.6704 35.3681C73.8605 36.3317 75.941 35.7696 76.7075 35.3681C76.525 34.6746 75.284 33.9445 75.722 31.645C76.0401 29.9751 83.7048 25.7971 82.6206 21.3518C81.5256 16.8622 74.846 17.6287 74.408 20.3663C74.0576 22.5563 75.649 23.2498 76.4885 23.3229C75.1745 22.2402 75.065 19.2713 77.8025 20.1473C81.3066 22.0088 77.474 25.0749 73.8605 27.5934C70.2469 30.112 71.5609 35.2586 71.6704 35.3681Z" fill="#431D67"/>
<mask id="mask3_20_576" style="mask-type:alpha" maskUnits="userSpaceOnUse" x="71" y="18" width="12" height="18">
<path d="M71.6704 35.3681C73.8605 36.3317 75.941 35.7696 76.7075 35.3681C76.525 34.6746 75.284 33.9445 75.722 31.645C76.0401 29.9751 83.7048 25.7971 82.6206 21.3518C81.5256 16.8622 74.846 17.6287 74.408 20.3663C74.0576 22.5563 75.649 23.2498 76.4885 23.3229C75.1745 22.2402 75.065 19.2713 77.8025 20.1473C81.3066 22.0088 77.474 25.0749 73.8605 27.5934C70.2469 30.112 71.5609 35.2586 71.6704 35.3681Z" fill="#5C2095"/>
</mask>
<g mask="url(#mask3_20_576)">
<ellipse cx="0.54751" cy="0.328506" rx="0.54751" ry="0.328506" transform="matrix(-0.979379 -0.202032 -0.202032 0.979379 72.4873 34.2529)" fill="#623557"/>
<ellipse cx="0.54751" cy="0.328506" rx="0.54751" ry="0.328506" transform="matrix(-0.993434 0.114408 0.114408 0.993434 72.3569 32.1645)" fill="#623557"/>
<ellipse cx="0.54751" cy="0.328506" rx="0.54751" ry="0.328506" transform="matrix(-0.993434 0.114408 0.114408 0.993434 73.8906 30.4125)" fill="#623557"/>
<ellipse cx="0.54751" cy="0.328506" rx="0.54751" ry="0.328506" transform="matrix(-0.885506 -0.464628 -0.464628 0.885506 73.3086 29.6072)" fill="#623557"/>
<ellipse cx="0.773633" cy="0.46418" rx="0.773633" ry="0.46418" transform="matrix(-0.885506 -0.464628 -0.464628 0.885506 75.2798 29.3793)" fill="#623557"/>
<ellipse cx="0.715804" cy="0.429483" rx="0.715804" ry="0.429483" transform="matrix(-0.984784 -0.17378 -0.17378 0.984784 74.6226 27.5952)" fill="#623557"/>
<ellipse cx="0.44753" cy="0.268518" rx="0.44753" ry="0.268518" transform="matrix(-0.984784 -0.17378 -0.17378 0.984784 76.375 27.9399)" fill="#623557"/>
<ellipse cx="0.188456" cy="0.113074" rx="0.188456" ry="0.113074" transform="matrix(-0.984784 -0.17378 -0.17378 0.984784 76.1558 27.4119)" fill="#623557"/>
<ellipse cx="0.188456" cy="0.113074" rx="0.188456" ry="0.113074" transform="matrix(-0.984784 -0.17378 -0.17378 0.984784 76.375 26.7549)" fill="#623557"/>
<ellipse cx="0.188456" cy="0.113074" rx="0.188456" ry="0.113074" transform="matrix(-0.984784 -0.17378 -0.17378 0.984784 75.0605 28.726)" fill="#623557"/>
<ellipse cx="0.188456" cy="0.113074" rx="0.188456" ry="0.113074" transform="matrix(-0.984784 -0.17378 -0.17378 0.984784 75.0605 27.6309)" fill="#623557"/>
<ellipse cx="0.44753" cy="0.268518" rx="0.44753" ry="0.268518" transform="matrix(-0.984784 -0.17378 -0.17378 0.984784 75.7173 26.6259)" fill="#623557"/>
<ellipse cx="0.44753" cy="0.268518" rx="0.44753" ry="0.268518" transform="matrix(-0.960533 -0.278166 -0.278166 0.960533 77.4697 27.1574)" fill="#623557"/>
<ellipse cx="0.790578" cy="0.474347" rx="0.790578" ry="0.474347" transform="matrix(-0.960533 -0.278166 -0.278166 0.960533 77.2505 25.5962)" fill="#623557"/>
<ellipse cx="0.790578" cy="0.474347" rx="0.790578" ry="0.474347" transform="matrix(-0.99549 -0.0948635 -0.0948635 0.99549 78.4614 24.0905)" fill="#623557"/>
<ellipse cx="0.790578" cy="0.474347" rx="0.790578" ry="0.474347" transform="matrix(-0.99549 -0.0948635 -0.0948635 0.99549 79.5718 22.5425)" fill="#623557"/>
<ellipse cx="0.641449" cy="0.384869" rx="0.641449" ry="0.384869" transform="matrix(-0.99549 -0.0948635 -0.0948635 0.99549 79.7217 21.4392)" fill="#623557"/>
<ellipse cx="0.641449" cy="0.384869" rx="0.641449" ry="0.384869" transform="matrix(-0.880771 0.473542 0.473542 0.880771 79.0762 20.1193)" fill="#623557"/>
<ellipse cx="0.641449" cy="0.384869" rx="0.641449" ry="0.384869" transform="matrix(-0.880771 0.473542 0.473542 0.880771 80.6089 19.0242)" fill="#623557"/>
<ellipse cx="0.790578" cy="0.474347" rx="0.790578" ry="0.474347" transform="matrix(-0.960533 -0.278166 -0.278166 0.960533 79.2217 26.2532)" fill="#623557"/>
<ellipse cx="0.790578" cy="0.474347" rx="0.790578" ry="0.474347" transform="matrix(-0.99549 -0.0948635 -0.0948635 0.99549 80.52 24.3699)" fill="#623557"/>
<ellipse cx="0.790578" cy="0.474347" rx="0.790578" ry="0.474347" transform="matrix(-0.99549 -0.0948635 -0.0948635 0.99549 81.6309 22.8219)" fill="#623557"/>
<ellipse cx="0.790578" cy="0.474347" rx="0.790578" ry="0.474347" transform="matrix(-0.941516 0.336969 0.336969 0.941516 81.5298 20.7763)" fill="#623557"/>
<ellipse cx="0.285826" cy="0.171496" rx="0.285826" ry="0.171496" transform="matrix(-0.960533 -0.278166 -0.278166 0.960533 77.9077 25.3154)" fill="#623557"/>
<ellipse cx="0.285826" cy="0.171496" rx="0.285826" ry="0.171496" transform="matrix(-0.99549 -0.0948635 -0.0948635 0.99549 79.0552 23.6925)" fill="#623557"/>
<ellipse cx="0.285826" cy="0.171496" rx="0.285826" ry="0.171496" transform="matrix(-0.99549 -0.0948635 -0.0948635 0.99549 80.0972 23.4586)" fill="#623557"/>
<ellipse cx="0.285826" cy="0.171496" rx="0.285826" ry="0.171496" transform="matrix(-0.99549 -0.0948635 -0.0948635 0.99549 80.3169 22.3636)" fill="#623557"/>
<ellipse cx="0.285826" cy="0.171496" rx="0.285826" ry="0.171496" transform="matrix(-0.941516 0.336969 0.336969 0.941516 80.146 20.9195)" fill="#623557"/>
<ellipse cx="0.285826" cy="0.259039" rx="0.285826" ry="0.259039" transform="matrix(-0.941516 0.336969 0.336969 0.941516 79.2661 19.4623)" fill="#623557"/>
<ellipse cx="0.448392" cy="0.406369" rx="0.448392" ry="0.406369" transform="matrix(-0.941516 0.336969 0.336969 0.941516 78.9312 18.1738)" fill="#623557"/>
<ellipse cx="0.448392" cy="0.406369" rx="0.448392" ry="0.406369" transform="matrix(-0.941516 0.336969 0.336969 0.941516 77.8525 19.4623)" fill="#623557"/>
<ellipse cx="0.266141" cy="0.241199" rx="0.266141" ry="0.241199" transform="matrix(-0.941516 0.336969 0.336969 0.941516 77.3071 18.8052)" fill="#623557"/>
<ellipse cx="0.266141" cy="0.241199" rx="0.266141" ry="0.241199" transform="matrix(-0.941516 0.336969 0.336969 0.941516 76.2124 18.5862)" fill="#623557"/>
<ellipse cx="0.266141" cy="0.241199" rx="0.266141" ry="0.241199" transform="matrix(-0.941516 0.336969 0.336969 0.941516 76.6504 19.6813)" fill="#623557"/>
<ellipse cx="0.266141" cy="0.241199" rx="0.266141" ry="0.241199" transform="matrix(-0.941516 0.336969 0.336969 0.941516 75.9932 19.4623)" fill="#623557"/>
<ellipse cx="0.266141" cy="0.241199" rx="0.266141" ry="0.241199" transform="matrix(-0.941516 0.336969 0.336969 0.941516 75.9932 20.3383)" fill="#623557"/>
<ellipse cx="0.141045" cy="0.127826" rx="0.141045" ry="0.127826" transform="matrix(-0.941516 0.336969 0.336969 0.941516 75.4121 20.1193)" fill="#623557"/>
<ellipse cx="0.141045" cy="0.127826" rx="0.141045" ry="0.127826" transform="matrix(-0.941516 0.336969 0.336969 0.941516 74.9746 20.9953)" fill="#623557"/>
<ellipse cx="0.141045" cy="0.127826" rx="0.141045" ry="0.127826" transform="matrix(-0.941516 0.336969 0.336969 0.941516 75.6313 21.2144)" fill="#623557"/>
<ellipse cx="0.141045" cy="0.127826" rx="0.141045" ry="0.127826" transform="matrix(-0.941516 0.336969 0.336969 0.941516 75.4121 21.8713)" fill="#623557"/>
<ellipse cx="0.141045" cy="0.127826" rx="0.141045" ry="0.127826" transform="matrix(-0.941516 0.336969 0.336969 0.941516 75.8506 22.3093)" fill="#623557"/>
<ellipse cx="0.141045" cy="0.127826" rx="0.141045" ry="0.127826" transform="matrix(-0.941516 0.336969 0.336969 0.941516 76.0698 22.7473)" fill="#623557"/>
<ellipse cx="0.337604" cy="0.202562" rx="0.337604" ry="0.202562" transform="matrix(-0.993434 0.114408 0.114408 0.993434 73.2617 32.3835)" fill="#623557"/>
<ellipse cx="0.337604" cy="0.202562" rx="0.337604" ry="0.202562" transform="matrix(-0.954482 -0.298269 -0.298269 0.954482 72.6514 30.3949)" fill="#623557"/>
<ellipse cx="0.897377" cy="0.538427" rx="0.897377" ry="0.538427" transform="matrix(-0.979379 -0.202032 -0.202032 0.979379 73.7466 33.1841)" fill="#623557"/>
<ellipse cx="0.897377" cy="0.538427" rx="0.897377" ry="0.538427" transform="matrix(-0.986159 0.165801 0.165801 0.986159 72.6924 30.8505)" fill="#623557"/>
<path d="M74.7433 30.303C73.0789 31.8798 74.1958 34.6831 74.9623 35.8876L77.6999 35.5591C76.4224 34.9751 74.7214 33.1063 78.1379 30.303C81.5543 27.4998 82.7005 24.2439 82.8465 22.9664C82.956 21.8713 82.6056 18.8272 79.4519 18.0388C76.2982 17.2504 74.8163 19.1338 74.4148 20.4478C74.9623 18.9513 77.021 17.0971 80.4374 19.4623C84.708 22.4189 76.8239 28.332 74.7433 30.303Z" fill="#34194C"/>
</g>
<path d="M78.2063 18.2689C79.1602 18.216 81.2784 18.6272 82.1206 20.6958C81.6838 20.0482 80.2894 18.6562 78.2063 18.2689Z" fill="#441E69"/>
<path d="M32.6125 54.3055C28.8706 55.9519 25.3158 54.9915 24.0061 54.3055C24.318 53.1205 26.4384 51.8732 25.69 47.9442C25.1465 45.091 12.0505 37.9524 13.903 30.3573C15.7739 22.6864 27.1867 23.996 27.9351 28.6734C28.5338 32.4153 25.8147 33.6003 24.3803 33.725C26.6255 31.8752 26.8126 26.8025 22.1352 28.2992C16.1482 31.4798 22.6965 36.7185 28.8706 41.0217C35.0447 45.3249 32.7996 54.1184 32.6125 54.3055Z" fill="#5C2095"/>
<mask id="mask4_20_576" style="mask-type:alpha" maskUnits="userSpaceOnUse" x="13" y="24" width="21" height="32">
<path d="M32.6125 54.3055C28.8706 55.9519 25.3158 54.9915 24.0061 54.3055C24.318 53.1205 26.4384 51.8732 25.69 47.9442C25.1465 45.091 12.0505 37.9524 13.903 30.3573C15.7739 22.6864 27.1867 23.996 27.9351 28.6734C28.5338 32.4153 25.8147 33.6003 24.3803 33.725C26.6255 31.8752 26.8126 26.8025 22.1352 28.2992C16.1482 31.4798 22.6965 36.7185 28.8706 41.0217C35.0447 45.3249 32.7996 54.1184 32.6125 54.3055Z" fill="#5C2095"/>
</mask>
<g mask="url(#mask4_20_576)">
<ellipse cx="32.2459" cy="52.7609" rx="0.935476" ry="0.561286" transform="rotate(-11.6558 32.2459 52.7609)" fill="#954A83"/>
<ellipse cx="32.3041" cy="49.4965" rx="0.935476" ry="0.561286" transform="rotate(6.56946 32.3041 49.4965)" fill="#954A83"/>
<ellipse cx="29.6849" cy="46.5029" rx="0.935476" ry="0.561286" transform="rotate(6.56946 29.6849 46.5029)" fill="#954A83"/>
<ellipse cx="30.9026" cy="44.5248" rx="0.935476" ry="0.561286" transform="rotate(-27.6861 30.9026 44.5248)" fill="#954A83"/>
<ellipse cx="27.9853" cy="44.1613" rx="1.32183" ry="0.793098" transform="rotate(-27.6861 27.9853 44.1613)" fill="#954A83"/>
<ellipse cx="28.9003" cy="41.5348" rx="1.22302" ry="0.733814" transform="rotate(-10.0077 28.9003 41.5348)" fill="#954A83"/>
<ellipse cx="25.4079" cy="41.9327" rx="0.76465" ry="0.45879" transform="rotate(-10.0077 25.4079 41.9327)" fill="#954A83"/>
<ellipse cx="25.2994" cy="40.8458" rx="0.321996" ry="0.193198" transform="rotate(-10.0077 25.2994 40.8458)" fill="#954A83"/>
<ellipse cx="24.9259" cy="39.7233" rx="0.321996" ry="0.193198" transform="rotate(-10.0077 24.9259 39.7233)" fill="#954A83"/>
<ellipse cx="27.171" cy="43.091" rx="0.321996" ry="0.193198" transform="rotate(-10.0077 27.171 43.091)" fill="#954A83"/>
<ellipse cx="27.171" cy="41.2201" rx="0.321996" ry="0.193198" transform="rotate(-10.0077 27.171 41.2201)" fill="#954A83"/>
<ellipse cx="26.531" cy="39.6876" rx="0.76465" ry="0.45879" transform="rotate(-10.0077 26.531 39.6876)" fill="#954A83"/>
<ellipse cx="23.5662" cy="40.5047" rx="0.76465" ry="0.45879" transform="rotate(-16.1508 23.5662 40.5047)" fill="#954A83"/>
<ellipse cx="24.601" cy="38.012" rx="1.35078" ry="0.81047" transform="rotate(-16.1508 24.601 38.012)" fill="#954A83"/>
<ellipse cx="22.4313" cy="35.7153" rx="1.35078" ry="0.81047" transform="rotate(-5.44346 22.4313 35.7153)" fill="#954A83"/>
<ellipse cx="20.5339" cy="33.0704" rx="1.35078" ry="0.81047" transform="rotate(-5.44346 20.5339 33.0704)" fill="#954A83"/>
<ellipse cx="20.0094" cy="31.0572" rx="1.09598" ry="0.657588" transform="rotate(-5.44346 20.0094 31.0572)" fill="#954A83"/>
<ellipse cx="20.6134" cy="29.3496" rx="1.09598" ry="0.657588" transform="rotate(28.2645 20.6134 29.3496)" fill="#954A83"/>
<ellipse cx="17.9938" cy="27.4786" rx="1.09598" ry="0.657588" transform="rotate(28.2645 17.9938 27.4786)" fill="#954A83"/>
<ellipse cx="21.2334" cy="39.1346" rx="1.35078" ry="0.81047" transform="rotate(-16.1508 21.2334 39.1346)" fill="#954A83"/>
<ellipse cx="18.9133" cy="36.1926" rx="1.35078" ry="0.81047" transform="rotate(-5.44346 18.9133 36.1926)" fill="#954A83"/>
<ellipse cx="17.0158" cy="33.5478" rx="1.35078" ry="0.81047" transform="rotate(-5.44346 17.0158 33.5478)" fill="#954A83"/>
<ellipse cx="16.7653" cy="30.5922" rx="1.35078" ry="0.81047" transform="rotate(19.6923 16.7653 30.5922)" fill="#954A83"/>
<ellipse cx="22.5062" cy="37.2751" rx="0.488363" ry="0.293018" transform="rotate(-16.1508 22.5062 37.2751)" fill="#954A83"/>
<ellipse cx="20.5096" cy="34.6019" rx="0.488363" ry="0.293018" transform="rotate(-5.44346 20.5096 34.6019)" fill="#954A83"/>
<ellipse cx="18.7278" cy="34.2023" rx="0.488363" ry="0.293018" transform="rotate(-5.44346 18.7278 34.2023)" fill="#954A83"/>
<ellipse cx="18.3533" cy="32.3313" rx="0.488363" ry="0.293018" transform="rotate(-5.44346 18.3533 32.3313)" fill="#954A83"/>
<ellipse cx="18.4924" cy="30.0591" rx="0.488363" ry="0.293018" transform="rotate(19.6923 18.4924 30.0591)" fill="#954A83"/>
<ellipse cx="19.9454" cy="27.7101" rx="0.488363" ry="0.442594" transform="rotate(19.6923 19.9454 27.7101)" fill="#954A83"/>
<ellipse cx="20.6939" cy="25.8391" rx="0.766123" ry="0.694323" transform="rotate(19.6923 20.6939 25.8391)" fill="#954A83"/>
<ellipse cx="22.5367" cy="28.0407" rx="0.766123" ry="0.694323" transform="rotate(19.6923 22.5367 28.0407)" fill="#954A83"/>
<ellipse cx="23.2712" cy="26.5475" rx="0.454729" ry="0.412112" transform="rotate(19.6923 23.2712 26.5475)" fill="#954A83"/>
<ellipse cx="25.1418" cy="26.1733" rx="0.454729" ry="0.412112" transform="rotate(19.6923 25.1418 26.1733)" fill="#954A83"/>
<ellipse cx="24.3933" cy="28.0442" rx="0.454729" ry="0.412112" transform="rotate(19.6923 24.3933 28.0442)" fill="#954A83"/>
<ellipse cx="25.5163" cy="27.67" rx="0.454729" ry="0.412112" transform="rotate(19.6923 25.5163 27.67)" fill="#954A83"/>
<ellipse cx="25.5163" cy="29.1668" rx="0.454729" ry="0.412112" transform="rotate(19.6923 25.5163 29.1668)" fill="#954A83"/>
<ellipse cx="26.3725" cy="28.5382" rx="0.24099" ry="0.218404" transform="rotate(19.6923 26.3725 28.5382)" fill="#954A83"/>
<ellipse cx="27.1206" cy="30.0349" rx="0.24099" ry="0.218404" transform="rotate(19.6923 27.1206 30.0349)" fill="#954A83"/>
<ellipse cx="25.998" cy="30.4092" rx="0.24099" ry="0.218404" transform="rotate(19.6923 25.998 30.4092)" fill="#954A83"/>
<ellipse cx="26.3725" cy="31.5317" rx="0.24099" ry="0.218404" transform="rotate(19.6923 26.3725 31.5317)" fill="#954A83"/>
<ellipse cx="25.6235" cy="32.2801" rx="0.24099" ry="0.218404" transform="rotate(19.6923 25.6235 32.2801)" fill="#954A83"/>
<ellipse cx="25.25" cy="33.0285" rx="0.24099" ry="0.218404" transform="rotate(19.6923 25.25 33.0285)" fill="#954A83"/>
<ellipse cx="30.4265" cy="49.6159" rx="0.57683" ry="0.346098" transform="rotate(6.56946 30.4265 49.6159)" fill="#954A83"/>
<ellipse cx="31.5898" cy="45.9665" rx="0.57683" ry="0.346098" transform="rotate(-17.3536 31.5898 45.9665)" fill="#954A83"/>
<ellipse cx="30.7529" cy="51.1652" rx="1.53326" ry="0.919956" transform="rotate(-11.6558 30.7529 51.1652)" fill="#954A83"/>
<ellipse cx="32.2267" cy="47.7482" rx="1.53326" ry="0.919956" transform="rotate(9.54376 32.2267 47.7482)" fill="#954A83"/>
<path d="M27.3624 45.6512C30.2063 48.3454 28.2979 53.1351 26.9882 55.1931L22.3108 54.6318C24.4936 53.634 27.3998 50.4409 21.5625 45.6512C15.7251 40.8616 13.7668 35.2986 13.5174 33.1159C13.3303 31.2449 13.929 26.0437 19.3173 24.6966C24.7057 23.3495 27.2377 26.5675 27.9237 28.8127C26.9882 26.2557 23.4708 23.0876 17.6335 27.1288C10.3368 32.1804 23.8076 42.2835 27.3624 45.6512Z" fill="#4F227A"/>
</g>
<path d="M21.4464 25.0898C19.8166 24.9994 16.1974 25.7021 14.7584 29.2364C15.5047 28.1299 17.8872 25.7515 21.4464 25.0898Z" fill="#7330B3"/>
<path d="M65.9119 54.3055C69.6538 55.9519 73.2086 54.9915 74.5183 54.3055C74.2065 53.1205 72.086 51.8732 72.8344 47.9442C73.3779 45.091 86.4739 37.9524 84.6214 30.3573C82.7505 22.6864 71.3377 23.996 70.5893 28.6734C69.9906 32.4153 72.7097 33.6003 74.1441 33.725C71.899 31.8752 71.7118 26.8025 76.3892 28.2992C82.3763 31.4798 75.828 36.7185 69.6538 41.0217C63.4797 45.3249 65.7248 54.1184 65.9119 54.3055Z" fill="#5C2095"/>
<mask id="mask5_20_576" style="mask-type:alpha" maskUnits="userSpaceOnUse" x="65" y="24" width="20" height="32">
<path d="M65.9119 54.3055C69.6538 55.9519 73.2086 54.9915 74.5183 54.3055C74.2065 53.1205 72.086 51.8732 72.8344 47.9442C73.3779 45.091 86.4739 37.9524 84.6214 30.3573C82.7505 22.6864 71.3377 23.996 70.5893 28.6734C69.9906 32.4153 72.7097 33.6003 74.1441 33.725C71.899 31.8752 71.7118 26.8025 76.3892 28.2992C82.3763 31.4798 75.828 36.7185 69.6538 41.0217C63.4797 45.3249 65.7248 54.1184 65.9119 54.3055Z" fill="#5C2095"/>
</mask>
<g mask="url(#mask5_20_576)">
<ellipse cx="0.935476" cy="0.561286" rx="0.935476" ry="0.561286" transform="matrix(-0.979379 -0.202032 -0.202032 0.979379 67.3081 52.4001)" fill="#954A83"/>
<ellipse cx="0.935476" cy="0.561286" rx="0.935476" ry="0.561286" transform="matrix(-0.993434 0.114408 0.114408 0.993434 67.0854 48.8318)" fill="#954A83"/>
<ellipse cx="0.935476" cy="0.561286" rx="0.935476" ry="0.561286" transform="matrix(-0.993434 0.114408 0.114408 0.993434 69.7046 45.8384)" fill="#954A83"/>
<ellipse cx="0.935476" cy="0.561286" rx="0.935476" ry="0.561286" transform="matrix(-0.885506 -0.464628 -0.464628 0.885506 68.7104 44.4625)" fill="#954A83"/>
<ellipse cx="1.32183" cy="0.793098" rx="1.32183" ry="0.793098" transform="matrix(-0.885506 -0.464628 -0.464628 0.885506 72.0786 44.0731)" fill="#954A83"/>
<ellipse cx="1.22302" cy="0.733814" rx="1.22302" ry="0.733814" transform="matrix(-0.984784 -0.17378 -0.17378 0.984784 70.9556 41.0248)" fill="#954A83"/>
<ellipse cx="0.76465" cy="0.45879" rx="0.76465" ry="0.45879" transform="matrix(-0.984784 -0.17378 -0.17378 0.984784 73.9492 41.6138)" fill="#954A83"/>
<ellipse cx="0.321996" cy="0.193198" rx="0.321996" ry="0.193198" transform="matrix(-0.984784 -0.17378 -0.17378 0.984784 73.5752 40.7116)" fill="#954A83"/>
<ellipse cx="0.321996" cy="0.193198" rx="0.321996" ry="0.193198" transform="matrix(-0.984784 -0.17378 -0.17378 0.984784 73.9492 39.589)" fill="#954A83"/>
<ellipse cx="0.321996" cy="0.193198" rx="0.321996" ry="0.193198" transform="matrix(-0.984784 -0.17378 -0.17378 0.984784 71.7046 42.9567)" fill="#954A83"/>
<ellipse cx="0.321996" cy="0.193198" rx="0.321996" ry="0.193198" transform="matrix(-0.984784 -0.17378 -0.17378 0.984784 71.7046 41.0858)" fill="#954A83"/>
<ellipse cx="0.76465" cy="0.45879" rx="0.76465" ry="0.45879" transform="matrix(-0.984784 -0.17378 -0.17378 0.984784 72.8267 39.3687)" fill="#954A83"/>
<ellipse cx="0.76465" cy="0.45879" rx="0.76465" ry="0.45879" transform="matrix(-0.960533 -0.278166 -0.278166 0.960533 75.8198 40.2767)" fill="#954A83"/>
<ellipse cx="1.35078" cy="0.81047" rx="1.35078" ry="0.81047" transform="matrix(-0.960533 -0.278166 -0.278166 0.960533 75.4458 37.6093)" fill="#954A83"/>
<ellipse cx="1.35078" cy="0.81047" rx="1.35078" ry="0.81047" transform="matrix(-0.99549 -0.0948635 -0.0948635 0.99549 77.5146 35.0366)" fill="#954A83"/>
<ellipse cx="1.35078" cy="0.81047" rx="1.35078" ry="0.81047" transform="matrix(-0.99549 -0.0948635 -0.0948635 0.99549 79.4121 32.3918)" fill="#954A83"/>
<ellipse cx="1.09598" cy="0.657588" rx="1.09598" ry="0.657588" transform="matrix(-0.99549 -0.0948635 -0.0948635 0.99549 79.668 30.5067)" fill="#954A83"/>
<ellipse cx="1.09598" cy="0.657588" rx="1.09598" ry="0.657588" transform="matrix(-0.880771 0.473542 0.473542 0.880771 78.5654 28.2514)" fill="#954A83"/>
<ellipse cx="1.09598" cy="0.657588" rx="1.09598" ry="0.657588" transform="matrix(-0.880771 0.473542 0.473542 0.880771 81.1851 26.3804)" fill="#954A83"/>
<ellipse cx="1.35078" cy="0.81047" rx="1.35078" ry="0.81047" transform="matrix(-0.960533 -0.278166 -0.278166 0.960533 78.814 38.7318)" fill="#954A83"/>
<ellipse cx="1.35078" cy="0.81047" rx="1.35078" ry="0.81047" transform="matrix(-0.99549 -0.0948635 -0.0948635 0.99549 81.0327 35.5139)" fill="#954A83"/>
<ellipse cx="1.35078" cy="0.81047" rx="1.35078" ry="0.81047" transform="matrix(-0.99549 -0.0948635 -0.0948635 0.99549 82.9297 32.8691)" fill="#954A83"/>
<ellipse cx="1.35078" cy="0.81047" rx="1.35078" ry="0.81047" transform="matrix(-0.941516 0.336969 0.336969 0.941516 82.7578 29.374)" fill="#954A83"/>
<ellipse cx="0.488363" cy="0.293018" rx="0.488363" ry="0.293018" transform="matrix(-0.960533 -0.278166 -0.278166 0.960533 76.5684 37.1295)" fill="#954A83"/>
<ellipse cx="0.488363" cy="0.293018" rx="0.488363" ry="0.293018" transform="matrix(-0.99549 -0.0948635 -0.0948635 0.99549 78.5288 34.3566)" fill="#954A83"/>
<ellipse cx="0.488363" cy="0.293018" rx="0.488363" ry="0.293018" transform="matrix(-0.99549 -0.0948635 -0.0948635 0.99549 80.3105 33.9569)" fill="#954A83"/>
<ellipse cx="0.488363" cy="0.293018" rx="0.488363" ry="0.293018" transform="matrix(-0.99549 -0.0948635 -0.0948635 0.99549 80.6851 32.0859)" fill="#954A83"/>
<ellipse cx="0.488363" cy="0.293018" rx="0.488363" ry="0.293018" transform="matrix(-0.941516 0.336969 0.336969 0.941516 80.3931 29.6187)" fill="#954A83"/>
<ellipse cx="0.488363" cy="0.442594" rx="0.488363" ry="0.442594" transform="matrix(-0.941516 0.336969 0.336969 0.941516 78.8896 27.1288)" fill="#954A83"/>
<ellipse cx="0.766123" cy="0.694323" rx="0.766123" ry="0.694323" transform="matrix(-0.941516 0.336969 0.336969 0.941516 78.3179 24.9272)" fill="#954A83"/>
<ellipse cx="0.766123" cy="0.694323" rx="0.766123" ry="0.694323" transform="matrix(-0.941516 0.336969 0.336969 0.941516 76.4751 27.1288)" fill="#954A83"/>
<ellipse cx="0.454729" cy="0.412112" rx="0.454729" ry="0.412112" transform="matrix(-0.941516 0.336969 0.336969 0.941516 75.543 26.0062)" fill="#954A83"/>
<ellipse cx="0.454729" cy="0.412112" rx="0.454729" ry="0.412112" transform="matrix(-0.941516 0.336969 0.336969 0.941516 73.6714 25.6321)" fill="#954A83"/>
<ellipse cx="0.454729" cy="0.412112" rx="0.454729" ry="0.412112" transform="matrix(-0.941516 0.336969 0.336969 0.941516 74.4199 27.503)" fill="#954A83"/>
<ellipse cx="0.454729" cy="0.412112" rx="0.454729" ry="0.412112" transform="matrix(-0.941516 0.336969 0.336969 0.941516 73.2974 27.1288)" fill="#954A83"/>
<ellipse cx="0.454729" cy="0.412112" rx="0.454729" ry="0.412112" transform="matrix(-0.941516 0.336969 0.336969 0.941516 73.2974 28.6255)" fill="#954A83"/>
<ellipse cx="0.24099" cy="0.218404" rx="0.24099" ry="0.218404" transform="matrix(-0.941516 0.336969 0.336969 0.941516 72.3057 28.2514)" fill="#954A83"/>
<ellipse cx="0.24099" cy="0.218404" rx="0.24099" ry="0.218404" transform="matrix(-0.941516 0.336969 0.336969 0.941516 71.5571 29.7482)" fill="#954A83"/>
<ellipse cx="0.24099" cy="0.218404" rx="0.24099" ry="0.218404" transform="matrix(-0.941516 0.336969 0.336969 0.941516 72.6797 30.1223)" fill="#954A83"/>
<ellipse cx="0.24099" cy="0.218404" rx="0.24099" ry="0.218404" transform="matrix(-0.941516 0.336969 0.336969 0.941516 72.3057 31.2449)" fill="#954A83"/>
<ellipse cx="0.24099" cy="0.218404" rx="0.24099" ry="0.218404" transform="matrix(-0.941516 0.336969 0.336969 0.941516 73.0537 31.9933)" fill="#954A83"/>
<ellipse cx="0.24099" cy="0.218404" rx="0.24099" ry="0.218404" transform="matrix(-0.941516 0.336969 0.336969 0.941516 73.4277 32.7417)" fill="#954A83"/>
<ellipse cx="0.57683" cy="0.346098" rx="0.57683" ry="0.346098" transform="matrix(-0.993434 0.114408 0.114408 0.993434 68.6313 49.2061)" fill="#954A83"/>
<ellipse cx="0.57683" cy="0.346098" rx="0.57683" ry="0.346098" transform="matrix(-0.954482 -0.298269 -0.298269 0.954482 67.5884 45.8083)" fill="#954A83"/>
<ellipse cx="1.53326" cy="0.919956" rx="1.53326" ry="0.919956" transform="matrix(-0.979379 -0.202032 -0.202032 0.979379 69.459 50.574)" fill="#954A83"/>
<ellipse cx="1.53326" cy="0.919956" rx="1.53326" ry="0.919956" transform="matrix(-0.986159 0.165801 0.165801 0.986159 67.6572 46.5867)" fill="#954A83"/>
<path d="M71.162 45.6512C68.3182 48.3454 70.2265 53.1351 71.5362 55.1931L76.2136 54.6318C74.0308 53.634 71.1246 50.4409 76.9619 45.6512C82.7993 40.8616 84.7576 35.2986 85.007 33.1159C85.1941 31.2449 84.5954 26.0437 79.2071 24.6966C73.8187 23.3495 71.2867 26.5675 70.6007 28.8127C71.5362 26.2557 75.0536 23.0876 80.891 27.1288C88.1877 32.1804 74.7168 42.2835 71.162 45.6512Z" fill="#4F227A"/>
</g>
<path d="M77.0785 25.0899C78.7083 24.9995 82.3275 25.7021 83.7665 29.2364C83.0202 28.1299 80.6377 25.7515 77.0785 25.0899Z" fill="#7330B3"/>
<path d="M1.67883 38.7077C6.29239 40.7377 10.6753 39.5535 12.29 38.7077C11.9056 37.2468 9.29117 35.7089 10.2139 30.8647C10.884 27.3468 27.0306 18.5453 24.7466 9.1809C22.4399 -0.276894 8.36849 1.33784 7.44578 7.10479C6.70761 11.7184 10.0601 13.1793 11.8287 13.3331C9.06053 11.0524 8.82981 4.79802 14.5968 6.64345C21.9785 10.565 13.9048 17.024 6.29239 22.3296C-1.31999 27.6352 1.44815 38.477 1.67883 38.7077Z" fill="#5C2095"/>
<mask id="mask6_20_576" style="mask-type:alpha" maskUnits="userSpaceOnUse" x="1" y="2" width="24" height="38">
<path d="M1.67834 38.7077C6.2919 40.7377 10.6748 39.5535 12.2895 38.7077C11.9051 37.2468 9.29068 35.7089 10.2134 30.8647C10.8835 27.3468 27.0301 18.5453 24.7462 9.1809C22.4394 -0.276894 8.36801 1.33784 7.44529 7.10479C6.70712 11.7184 10.0596 13.1793 11.8282 13.3331C9.06004 11.0524 8.82932 4.79802 14.5963 6.64345C21.978 10.565 13.9043 17.024 6.2919 22.3296C-1.32048 27.6352 1.44766 38.477 1.67834 38.7077Z" fill="#5C2095"/>
</mask>
<g mask="url(#mask6_20_576)">
<ellipse cx="1.15339" cy="0.692035" rx="1.15339" ry="0.692035" transform="matrix(-0.979379 -0.202032 -0.202032 0.979379 3.39941 36.3586)" fill="#954A83"/>
<ellipse cx="1.15339" cy="0.692035" rx="1.15339" ry="0.692035" transform="matrix(-0.993434 0.114408 0.114408 0.993434 3.12549 31.959)" fill="#954A83"/>
<ellipse cx="1.15339" cy="0.692035" rx="1.15339" ry="0.692035" transform="matrix(-0.993434 0.114408 0.114408 0.993434 6.35498 28.2682)" fill="#954A83"/>
<ellipse cx="1.15339" cy="0.692035" rx="1.15339" ry="0.692035" transform="matrix(-0.885506 -0.464628 -0.464628 0.885506 5.12939 26.5718)" fill="#954A83"/>
<ellipse cx="1.62974" cy="0.977847" rx="1.62974" ry="0.977847" transform="matrix(-0.885506 -0.464628 -0.464628 0.885506 9.28125 26.0918)" fill="#954A83"/>
<ellipse cx="1.50792" cy="0.904753" rx="1.50792" ry="0.904753" transform="matrix(-0.984784 -0.17378 -0.17378 0.984784 7.89697 22.3333)" fill="#954A83"/>
<ellipse cx="0.942772" cy="0.565663" rx="0.942772" ry="0.565663" transform="matrix(-0.984784 -0.17378 -0.17378 0.984784 11.5884 23.0596)" fill="#954A83"/>
<ellipse cx="0.397004" cy="0.238202" rx="0.397004" ry="0.238202" transform="matrix(-0.984784 -0.17378 -0.17378 0.984784 11.1274 21.9472)" fill="#954A83"/>
<ellipse cx="0.397004" cy="0.238202" rx="0.397004" ry="0.238202" transform="matrix(-0.984784 -0.17378 -0.17378 0.984784 11.5884 20.5631)" fill="#954A83"/>
<ellipse cx="0.397004" cy="0.238202" rx="0.397004" ry="0.238202" transform="matrix(-0.984784 -0.17378 -0.17378 0.984784 8.81982 24.7153)" fill="#954A83"/>
<ellipse cx="0.397004" cy="0.238202" rx="0.397004" ry="0.238202" transform="matrix(-0.984784 -0.17378 -0.17378 0.984784 8.81982 22.4086)" fill="#954A83"/>
<ellipse cx="0.942772" cy="0.565663" rx="0.942772" ry="0.565663" transform="matrix(-0.984784 -0.17378 -0.17378 0.984784 10.2041 20.2914)" fill="#954A83"/>
<ellipse cx="0.942772" cy="0.565663" rx="0.942772" ry="0.565663" transform="matrix(-0.960533 -0.278166 -0.278166 0.960533 13.895 21.411)" fill="#954A83"/>
<ellipse cx="1.66544" cy="0.999265" rx="1.66544" ry="0.999265" transform="matrix(-0.960533 -0.278166 -0.278166 0.960533 13.4336 18.1222)" fill="#954A83"/>
<ellipse cx="1.66544" cy="0.999265" rx="1.66544" ry="0.999265" transform="matrix(-0.99549 -0.0948635 -0.0948635 0.99549 15.9844 14.9503)" fill="#954A83"/>
<ellipse cx="1.66544" cy="0.999265" rx="1.66544" ry="0.999265" transform="matrix(-0.99549 -0.0948635 -0.0948635 0.99549 18.3237 11.6893)" fill="#954A83"/>
<ellipse cx="1.35128" cy="0.81077" rx="1.35128" ry="0.81077" transform="matrix(-0.99549 -0.0948635 -0.0948635 0.99549 18.6396 9.36505)" fill="#954A83"/>
<ellipse cx="1.35128" cy="0.81077" rx="1.35128" ry="0.81077" transform="matrix(-0.880771 0.473542 0.473542 0.880771 17.2793 6.58447)" fill="#954A83"/>
<ellipse cx="1.35128" cy="0.81077" rx="1.35128" ry="0.81077" transform="matrix(-0.880771 0.473542 0.473542 0.880771 20.5088 4.27765)" fill="#954A83"/>
<ellipse cx="1.66544" cy="0.999265" rx="1.66544" ry="0.999265" transform="matrix(-0.960533 -0.278166 -0.278166 0.960533 17.5854 19.5063)" fill="#954A83"/>
<ellipse cx="1.66544" cy="0.999265" rx="1.66544" ry="0.999265" transform="matrix(-0.99549 -0.0948635 -0.0948635 0.99549 20.3213 15.5388)" fill="#954A83"/>
<ellipse cx="1.66544" cy="0.999265" rx="1.66544" ry="0.999265" transform="matrix(-0.99549 -0.0948635 -0.0948635 0.99549 22.6606 12.2778)" fill="#954A83"/>
<ellipse cx="1.66544" cy="0.999265" rx="1.66544" ry="0.999265" transform="matrix(-0.941516 0.336969 0.336969 0.941516 22.4487 7.96851)" fill="#954A83"/>
<ellipse cx="0.602124" cy="0.361275" rx="0.602124" ry="0.361275" transform="matrix(-0.960533 -0.278166 -0.278166 0.960533 14.8179 17.5306)" fill="#954A83"/>
<ellipse cx="0.602124" cy="0.361275" rx="0.602124" ry="0.361275" transform="matrix(-0.99549 -0.0948635 -0.0948635 0.99549 17.2344 14.1119)" fill="#954A83"/>
<ellipse cx="0.602124" cy="0.361275" rx="0.602124" ry="0.361275" transform="matrix(-0.99549 -0.0948635 -0.0948635 0.99549 19.4312 13.619)" fill="#954A83"/>
<ellipse cx="0.602124" cy="0.361275" rx="0.602124" ry="0.361275" transform="matrix(-0.99549 -0.0948635 -0.0948635 0.99549 19.8931 11.3123)" fill="#954A83"/>
<ellipse cx="0.602124" cy="0.361275" rx="0.602124" ry="0.361275" transform="matrix(-0.941516 0.336969 0.336969 0.941516 19.5322 8.2702)" fill="#954A83"/>
<ellipse cx="0.602124" cy="0.545694" rx="0.602124" ry="0.545694" transform="matrix(-0.941516 0.336969 0.336969 0.941516 17.6792 5.20038)" fill="#954A83"/>
<ellipse cx="0.944588" cy="0.856062" rx="0.944588" ry="0.856062" transform="matrix(-0.941516 0.336969 0.336969 0.941516 16.9746 2.48596)" fill="#954A83"/>
<ellipse cx="0.944588" cy="0.856062" rx="0.944588" ry="0.856062" transform="matrix(-0.941516 0.336969 0.336969 0.941516 14.7021 5.20038)" fill="#954A83"/>
<ellipse cx="0.560655" cy="0.508112" rx="0.560655" ry="0.508112" transform="matrix(-0.941516 0.336969 0.336969 0.941516 13.5527 3.81635)" fill="#954A83"/>
<ellipse cx="0.560655" cy="0.508112" rx="0.560655" ry="0.508112" transform="matrix(-0.941516 0.336969 0.336969 0.941516 11.2456 3.35498)" fill="#954A83"/>
<ellipse cx="0.560655" cy="0.508112" rx="0.560655" ry="0.508112" transform="matrix(-0.941516 0.336969 0.336969 0.941516 12.1689 5.66174)" fill="#954A83"/>
<ellipse cx="0.560655" cy="0.508112" rx="0.560655" ry="0.508112" transform="matrix(-0.941516 0.336969 0.336969 0.941516 10.7847 5.20038)" fill="#954A83"/>
<ellipse cx="0.560655" cy="0.508112" rx="0.560655" ry="0.508112" transform="matrix(-0.941516 0.336969 0.336969 0.941516 10.7847 7.04584)" fill="#954A83"/>
<ellipse cx="0.297127" cy="0.269281" rx="0.297127" ry="0.269281" transform="matrix(-0.941516 0.336969 0.336969 0.941516 9.56104 6.58447)" fill="#954A83"/>
<ellipse cx="0.297127" cy="0.269281" rx="0.297127" ry="0.269281" transform="matrix(-0.941516 0.336969 0.336969 0.941516 8.63867 8.42987)" fill="#954A83"/>
<ellipse cx="0.297127" cy="0.269281" rx="0.297127" ry="0.269281" transform="matrix(-0.941516 0.336969 0.336969 0.941516 10.0225 8.89124)" fill="#954A83"/>
<ellipse cx="0.297127" cy="0.269281" rx="0.297127" ry="0.269281" transform="matrix(-0.941516 0.336969 0.336969 0.941516 9.56104 10.2753)" fill="#954A83"/>
<ellipse cx="0.297127" cy="0.269281" rx="0.297127" ry="0.269281" transform="matrix(-0.941516 0.336969 0.336969 0.941516 10.4839 11.198)" fill="#954A83"/>
<ellipse cx="0.297127" cy="0.269281" rx="0.297127" ry="0.269281" transform="matrix(-0.941516 0.336969 0.336969 0.941516 10.9453 12.1207)" fill="#954A83"/>
<ellipse cx="0.7112" cy="0.42672" rx="0.7112" ry="0.42672" transform="matrix(-0.993434 0.114408 0.114408 0.993434 5.03174 32.4204)" fill="#954A83"/>
<ellipse cx="0.7112" cy="0.42672" rx="0.7112" ry="0.42672" transform="matrix(-0.954482 -0.298269 -0.298269 0.954482 3.74512 28.2311)" fill="#954A83"/>
<ellipse cx="1.89043" cy="1.13426" rx="1.89043" ry="1.13426" transform="matrix(-0.979379 -0.202032 -0.202032 0.979379 6.05225 34.1069)" fill="#954A83"/>
<ellipse cx="1.89043" cy="1.13426" rx="1.89043" ry="1.13426" transform="matrix(-0.986159 0.165801 0.165801 0.986159 3.83057 29.1909)" fill="#954A83"/>
<path d="M8.15156 28.0375C4.64525 31.3593 6.99817 37.2647 8.61292 39.8021L14.3799 39.1101C11.6886 37.8798 8.10541 33.9429 15.3026 28.0375C22.4997 22.1322 24.9142 15.2733 25.2217 12.5821C25.4524 10.2753 24.7142 3.86245 18.0707 2.20157C11.4272 0.540688 8.30534 4.50834 7.45952 7.27648C8.61291 4.12388 12.9497 0.217738 20.1468 5.20039C29.1433 11.4287 12.5344 23.8853 8.15156 28.0375Z" fill="#4F227A"/>
</g>
<path d="M15.4457 2.68651C17.4551 2.575 21.9174 3.44138 23.6917 7.79895C22.7715 6.4347 19.834 3.50227 15.4457 2.68651Z" fill="#7330B3"/>
<path d="M100.624 38.7077C96.0108 40.7377 91.6279 39.5535 90.0132 38.7077C90.3977 37.2468 93.0121 35.7089 92.0893 30.8647C91.4192 27.3468 75.2726 18.5453 77.5566 9.1809C79.8633 -0.276894 93.9347 1.33784 94.8574 7.10479C95.5956 11.7184 92.2431 13.1793 90.4746 13.3331C93.2427 11.0524 93.4734 4.79802 87.7064 6.64345C80.3248 10.565 88.3985 17.024 96.0108 22.3296C103.623 27.6352 100.855 38.477 100.624 38.7077Z" fill="#5C2095"/>
<mask id="mask7_20_576" style="mask-type:alpha" maskUnits="userSpaceOnUse" x="77" y="2" width="25" height="38">
<path d="M100.625 38.7077C96.0113 40.7377 91.6284 39.5535 90.0137 38.7077C90.3982 37.2468 93.0125 35.7089 92.0898 30.8647C91.4197 27.3468 75.2731 18.5453 77.5571 9.1809C79.8638 -0.276894 93.9352 1.33784 94.8579 7.10479C95.5961 11.7184 92.2436 13.1793 90.475 13.3331C93.2432 11.0524 93.4739 4.79802 87.7069 6.64345C80.3252 10.565 88.3989 17.024 96.0113 22.3296C103.624 27.6352 100.856 38.477 100.625 38.7077Z" fill="#5C2095"/>
</mask>
<g mask="url(#mask7_20_576)">
<ellipse cx="100.173" cy="36.8033" rx="1.15339" ry="0.692035" transform="rotate(-11.6558 100.173 36.8033)" fill="#954A83"/>
<ellipse cx="100.244" cy="32.7785" rx="1.15339" ry="0.692035" transform="rotate(6.56946 100.244 32.7785)" fill="#954A83"/>
<ellipse cx="97.0149" cy="29.0876" rx="1.15339" ry="0.692035" transform="rotate(6.56946 97.0149 29.0876)" fill="#954A83"/>
<ellipse cx="98.5167" cy="26.6487" rx="1.15339" ry="0.692035" transform="rotate(-27.6861 98.5167 26.6487)" fill="#954A83"/>
<ellipse cx="94.9195" cy="26.2005" rx="1.62974" ry="0.977847" transform="rotate(-27.6861 94.9195 26.2005)" fill="#954A83"/>
<ellipse cx="96.0485" cy="22.9623" rx="1.50792" ry="0.904753" transform="rotate(-10.0077 96.0485 22.9623)" fill="#954A83"/>
<ellipse cx="91.7416" cy="23.4528" rx="0.942772" ry="0.565663" transform="rotate(-10.0077 91.7416 23.4528)" fill="#954A83"/>
<ellipse cx="91.6086" cy="22.1128" rx="0.397004" ry="0.238202" transform="rotate(-10.0077 91.6086 22.1128)" fill="#954A83"/>
<ellipse cx="91.1472" cy="20.7287" rx="0.397004" ry="0.238202" transform="rotate(-10.0077 91.1472 20.7287)" fill="#954A83"/>
<ellipse cx="93.9158" cy="24.8809" rx="0.397004" ry="0.238202" transform="rotate(-10.0077 93.9158 24.8809)" fill="#954A83"/>
<ellipse cx="93.9158" cy="22.5742" rx="0.397004" ry="0.238202" transform="rotate(-10.0077 93.9158 22.5742)" fill="#954A83"/>
<ellipse cx="93.1258" cy="20.6847" rx="0.942772" ry="0.565663" transform="rotate(-10.0077 93.1258 20.6847)" fill="#954A83"/>
<ellipse cx="89.4711" cy="21.6921" rx="0.942772" ry="0.565663" transform="rotate(-16.1508 89.4711 21.6921)" fill="#954A83"/>
<ellipse cx="90.7473" cy="18.6187" rx="1.66544" ry="0.999265" transform="rotate(-16.1508 90.7473 18.6187)" fill="#954A83"/>
<ellipse cx="88.0716" cy="15.787" rx="1.66544" ry="0.999265" transform="rotate(-5.44346 88.0716 15.787)" fill="#954A83"/>
<ellipse cx="85.7322" cy="12.5261" rx="1.66544" ry="0.999265" transform="rotate(-5.44346 85.7322 12.5261)" fill="#954A83"/>
<ellipse cx="85.0862" cy="10.044" rx="1.35128" ry="0.81077" transform="rotate(-5.44346 85.0862 10.044)" fill="#954A83"/>
<ellipse cx="85.8302" cy="7.93847" rx="1.35128" ry="0.81077" transform="rotate(28.2645 85.8302 7.93847)" fill="#954A83"/>
<ellipse cx="82.6007" cy="5.63164" rx="1.35128" ry="0.81077" transform="rotate(28.2645 82.6007 5.63164)" fill="#954A83"/>
<ellipse cx="86.595" cy="20.0028" rx="1.66544" ry="0.999265" transform="rotate(-16.1508 86.595 20.0028)" fill="#954A83"/>
<ellipse cx="83.7347" cy="16.3755" rx="1.66544" ry="0.999265" transform="rotate(-5.44346 83.7347 16.3755)" fill="#954A83"/>
<ellipse cx="81.3958" cy="13.1146" rx="1.66544" ry="0.999265" transform="rotate(-5.44346 81.3958 13.1146)" fill="#954A83"/>
<ellipse cx="81.0863" cy="9.47053" rx="1.66544" ry="0.999265" transform="rotate(19.6923 81.0863 9.47053)" fill="#954A83"/>
<ellipse cx="88.1642" cy="17.7102" rx="0.602124" ry="0.361275" transform="rotate(-16.1508 88.1642 17.7102)" fill="#954A83"/>
<ellipse cx="85.702" cy="14.4143" rx="0.602124" ry="0.361275" transform="rotate(-5.44346 85.702 14.4143)" fill="#954A83"/>
<ellipse cx="83.5058" cy="13.9215" rx="0.602124" ry="0.361275" transform="rotate(-5.44346 83.5058 13.9215)" fill="#954A83"/>
<ellipse cx="83.0443" cy="11.6148" rx="0.602124" ry="0.361275" transform="rotate(-5.44346 83.0443 11.6148)" fill="#954A83"/>
<ellipse cx="83.2157" cy="8.81325" rx="0.602124" ry="0.361275" transform="rotate(19.6923 83.2157 8.81325)" fill="#954A83"/>
<ellipse cx="85.007" cy="5.91706" rx="0.602124" ry="0.545694" transform="rotate(19.6923 85.007 5.91706)" fill="#954A83"/>
<ellipse cx="85.9295" cy="3.61026" rx="0.944588" ry="0.856062" transform="rotate(19.6923 85.9295 3.61026)" fill="#954A83"/>
<ellipse cx="88.2024" cy="6.32467" rx="0.944588" ry="0.856062" transform="rotate(19.6923 88.2024 6.32467)" fill="#954A83"/>
<ellipse cx="89.1071" cy="4.4836" rx="0.560655" ry="0.508112" transform="rotate(19.6923 89.1071 4.4836)" fill="#954A83"/>
<ellipse cx="91.4138" cy="4.0223" rx="0.560655" ry="0.508112" transform="rotate(19.6923 91.4138 4.0223)" fill="#954A83"/>
<ellipse cx="90.4914" cy="6.32906" rx="0.560655" ry="0.508112" transform="rotate(19.6923 90.4914 6.32906)" fill="#954A83"/>
<ellipse cx="91.8757" cy="5.8677" rx="0.560655" ry="0.508112" transform="rotate(19.6923 91.8757 5.8677)" fill="#954A83"/>
<ellipse cx="91.8757" cy="7.7131" rx="0.560655" ry="0.508112" transform="rotate(19.6923 91.8757 7.7131)" fill="#954A83"/>
<ellipse cx="92.9307" cy="6.93813" rx="0.297127" ry="0.269281" transform="rotate(19.6923 92.9307 6.93813)" fill="#954A83"/>
<ellipse cx="93.8536" cy="8.78353" rx="0.297127" ry="0.269281" transform="rotate(19.6923 93.8536 8.78353)" fill="#954A83"/>
<ellipse cx="92.4698" cy="9.24489" rx="0.297127" ry="0.269281" transform="rotate(19.6923 92.4698 9.24489)" fill="#954A83"/>
<ellipse cx="92.9307" cy="10.629" rx="0.297127" ry="0.269281" transform="rotate(19.6923 92.9307 10.629)" fill="#954A83"/>
<ellipse cx="92.0083" cy="11.5517" rx="0.297127" ry="0.269281" transform="rotate(19.6923 92.0083 11.5517)" fill="#954A83"/>
<ellipse cx="91.5469" cy="12.4744" rx="0.297127" ry="0.269281" transform="rotate(19.6923 91.5469 12.4744)" fill="#954A83"/>
<ellipse cx="97.9297" cy="32.9257" rx="0.7112" ry="0.42672" transform="rotate(6.56946 97.9297 32.9257)" fill="#954A83"/>
<ellipse cx="99.3647" cy="28.4263" rx="0.7112" ry="0.42672" transform="rotate(-17.3536 99.3647 28.4263)" fill="#954A83"/>
<ellipse cx="98.3316" cy="34.8359" rx="1.89043" ry="1.13426" transform="rotate(-11.6558 98.3316 34.8359)" fill="#954A83"/>
<ellipse cx="100.149" cy="30.6229" rx="1.89043" ry="1.13426" transform="rotate(9.54376 100.149 30.6229)" fill="#954A83"/>
<path d="M94.1517 28.0375C97.658 31.3593 95.3051 37.2647 93.6903 39.8021L87.9234 39.1101C90.6146 37.8798 94.1978 33.9429 87.0006 28.0375C79.8035 22.1322 77.3891 15.2733 77.0815 12.5821C76.8508 10.2753 77.589 3.86245 84.2325 2.20157C90.876 0.540688 93.9979 4.50834 94.8437 7.27648C93.6903 4.12388 89.3536 0.217738 82.1564 5.20039C73.16 11.4287 89.7688 23.8853 94.1517 28.0375Z" fill="#4F227A"/>
</g>
<path d="M86.8575 2.68651C84.8481 2.575 80.3858 3.44138 78.6115 7.79895C79.5317 6.4347 82.4692 3.50227 86.8575 2.68651Z" fill="#7330B3"/>
</svg>
