<svg width="148" height="55" viewBox="0 0 148 55" fill="none" xmlns="http://www.w3.org/2000/svg">
<path d="M87.44 35.4V39.376C87.44 40.176 87.232 40.7867 86.816 41.208C86.4 41.6293 85.824 41.84 85.088 41.84C84.6293 41.84 84.216 41.7653 83.848 41.616C83.4853 41.472 83.1813 41.2613 82.936 40.984L83.208 40.528C83.6827 41.0507 84.3093 41.312 85.088 41.312C85.664 41.312 86.1013 41.152 86.4 40.832C86.6987 40.512 86.848 40.032 86.848 39.392V38.64C86.4853 39.2747 85.88 39.592 85.032 39.592C84.3387 39.592 83.7973 39.3947 83.408 39C83.0187 38.6 82.824 38.0267 82.824 37.28V35.4H83.416V37.256C83.416 37.848 83.5627 38.2987 83.856 38.608C84.1493 38.912 84.56 39.064 85.088 39.064C85.6427 39.064 86.0747 38.904 86.384 38.584C86.6933 38.2587 86.848 37.7733 86.848 37.128V35.4H87.44ZM93.8167 36.792V41H93.2967V37.672L91.5927 40.488H91.3367L89.6327 37.664V41H89.1127V36.792H89.6887L91.4727 39.824L93.2887 36.792H93.8167ZM95.433 36.792H96.001V38.656H98.649V36.792H99.217V41H98.649V39.144H96.001V41H95.433V36.792ZM102.503 41.088C101.927 41.088 101.485 40.9467 101.175 40.664C100.871 40.376 100.719 39.9707 100.719 39.448V36.792H101.287V38.544C101.415 38.3893 101.594 38.2613 101.823 38.16C102.053 38.0587 102.319 38.008 102.623 38.008C103.135 38.008 103.533 38.1413 103.815 38.408C104.103 38.6693 104.247 39.0267 104.247 39.48C104.247 39.7947 104.175 40.0747 104.031 40.32C103.893 40.56 103.69 40.7493 103.423 40.888C103.162 41.0213 102.855 41.088 102.503 41.088ZM104.935 36.792H105.503V41H104.935V36.792ZM102.519 40.648C102.882 40.648 103.165 40.5413 103.367 40.328C103.57 40.1093 103.671 39.832 103.671 39.496C103.671 39.1813 103.567 38.928 103.359 38.736C103.151 38.5387 102.858 38.44 102.479 38.44C102.202 38.44 101.959 38.4987 101.751 38.616C101.549 38.7333 101.394 38.896 101.287 39.104V39.488C101.287 39.8507 101.391 40.136 101.599 40.344C101.813 40.5467 102.119 40.648 102.519 40.648ZM110.825 36.792V41H110.281V40.232C110.131 40.488 109.926 40.688 109.665 40.832C109.403 40.9707 109.105 41.04 108.769 41.04C108.214 41.04 107.777 40.888 107.457 40.584C107.142 40.2747 106.985 39.824 106.985 39.232V36.792H107.553V39.176C107.553 39.6187 107.662 39.9547 107.881 40.184C108.099 40.4133 108.414 40.528 108.825 40.528C109.267 40.528 109.617 40.3947 109.873 40.128C110.129 39.856 110.257 39.48 110.257 39V36.792H110.825ZM108.905 36.192C108.542 36.192 108.254 36.1013 108.041 35.92C107.827 35.7387 107.718 35.4827 107.713 35.152H108.121C108.126 35.36 108.201 35.528 108.345 35.656C108.489 35.7787 108.675 35.84 108.905 35.84C109.134 35.84 109.321 35.7787 109.465 35.656C109.614 35.528 109.691 35.36 109.697 35.152H110.105C110.099 35.4827 109.987 35.7387 109.769 35.92C109.555 36.1013 109.267 36.192 108.905 36.192ZM119.783 36.76C120.311 36.76 120.724 36.912 121.023 37.216C121.327 37.52 121.479 37.968 121.479 38.56V41H120.911V38.616C120.911 38.1787 120.804 37.8453 120.591 37.616C120.383 37.3867 120.087 37.272 119.703 37.272C119.265 37.272 118.921 37.408 118.671 37.68C118.42 37.9467 118.295 38.3173 118.295 38.792V41H117.727V38.616C117.727 38.1787 117.62 37.8453 117.407 37.616C117.199 37.3867 116.9 37.272 116.511 37.272C116.079 37.272 115.735 37.408 115.479 37.68C115.228 37.9467 115.103 38.3173 115.103 38.792V41H114.535V36.792H115.079V37.56C115.228 37.304 115.436 37.1067 115.703 36.968C115.969 36.8293 116.276 36.76 116.623 36.76C116.975 36.76 117.279 36.8347 117.535 36.984C117.796 37.1333 117.991 37.3547 118.119 37.648C118.273 37.3707 118.495 37.1547 118.783 37C119.076 36.84 119.409 36.76 119.783 36.76ZM124.748 40.536C125.01 40.536 125.25 40.4907 125.468 40.4C125.692 40.304 125.882 40.1653 126.036 39.984L126.356 40.352C126.17 40.576 125.938 40.7467 125.66 40.864C125.383 40.9813 125.076 41.04 124.74 41.04C124.308 41.04 123.924 40.9493 123.588 40.768C123.252 40.5813 122.991 40.3253 122.804 40C122.618 39.6747 122.524 39.3067 122.524 38.896C122.524 38.4853 122.612 38.1173 122.788 37.792C122.97 37.4667 123.218 37.2133 123.532 37.032C123.847 36.8507 124.204 36.76 124.604 36.76C124.978 36.76 125.314 36.8453 125.612 37.016C125.916 37.1867 126.156 37.424 126.332 37.728C126.514 38.032 126.61 38.3787 126.62 38.768L123.164 39.44C123.271 39.7813 123.463 40.0507 123.74 40.248C124.023 40.44 124.359 40.536 124.748 40.536ZM124.604 37.248C124.311 37.248 124.047 37.3173 123.812 37.456C123.583 37.5893 123.402 37.7787 123.268 38.024C123.14 38.264 123.076 38.5413 123.076 38.856C123.076 38.936 123.079 38.9947 123.084 39.032L126.052 38.456C125.988 38.104 125.826 37.816 125.564 37.592C125.303 37.3627 124.983 37.248 124.604 37.248ZM129.32 39.128H128.36V41H127.792V36.792H128.36V38.64H129.328L130.808 36.792H131.424L129.768 38.832L131.544 41H130.872L129.32 39.128ZM134.052 41.04C133.636 41.04 133.263 40.9493 132.932 40.768C132.607 40.5867 132.351 40.3333 132.164 40.008C131.978 39.6773 131.884 39.3067 131.884 38.896C131.884 38.4853 131.978 38.1173 132.164 37.792C132.351 37.4667 132.607 37.2133 132.932 37.032C133.263 36.8507 133.636 36.76 134.052 36.76C134.415 36.76 134.738 36.832 135.02 36.976C135.308 37.1147 135.535 37.32 135.7 37.592L135.276 37.88C135.138 37.672 134.962 37.5173 134.748 37.416C134.535 37.3093 134.303 37.256 134.052 37.256C133.748 37.256 133.474 37.3253 133.228 37.464C132.988 37.5973 132.799 37.7893 132.66 38.04C132.527 38.2907 132.46 38.576 132.46 38.896C132.46 39.2213 132.527 39.5093 132.66 39.76C132.799 40.0053 132.988 40.1973 133.228 40.336C133.474 40.4693 133.748 40.536 134.052 40.536C134.303 40.536 134.535 40.4853 134.748 40.384C134.962 40.2827 135.138 40.128 135.276 39.92L135.7 40.208C135.535 40.48 135.308 40.688 135.02 40.832C134.732 40.9707 134.41 41.04 134.052 41.04ZM142.048 36.76C142.576 36.76 142.99 36.912 143.288 37.216C143.592 37.52 143.744 37.968 143.744 38.56V41H143.176V38.616C143.176 38.1787 143.07 37.8453 142.856 37.616C142.648 37.3867 142.352 37.272 141.968 37.272C141.531 37.272 141.187 37.408 140.936 37.68C140.686 37.9467 140.56 38.3173 140.56 38.792V41H139.992V38.616C139.992 38.1787 139.886 37.8453 139.672 37.616C139.464 37.3867 139.166 37.272 138.776 37.272C138.344 37.272 138 37.408 137.744 37.68C137.494 37.9467 137.368 38.3173 137.368 38.792V41H136.8V36.792H137.344V37.56C137.494 37.304 137.702 37.1067 137.968 36.968C138.235 36.8293 138.542 36.76 138.888 36.76C139.24 36.76 139.544 36.8347 139.8 36.984C140.062 37.1333 140.256 37.3547 140.384 37.648C140.539 37.3707 140.76 37.1547 141.048 37C141.342 36.84 141.675 36.76 142.048 36.76Z" fill="black"/>
<path d="M14.4528 7.89996C13.8302 7.89996 13.3411 8.39569 13.3411 9.02768V10.7222C13.3411 11.3542 13.8302 11.8499 14.4528 11.8499C15.0754 11.8499 15.5646 11.3542 15.5646 10.7222V9.02571C15.5646 8.39569 15.0754 7.89996 14.4528 7.89996Z" fill="black"/>
<path d="M66.7054 28.4853C66.7054 17.0738 56.2482 7.85456 43.3585 7.85456H34.7758C34.7256 7.85464 34.6755 7.84934 34.6268 7.83876C35.2477 7.01636 35.5782 6.04815 35.5762 5.05797C35.5759 4.39233 35.4278 3.73328 35.1403 3.11857C34.8527 2.50387 34.4315 1.9456 33.9007 1.47575C33.3698 1.00589 32.7398 0.633687 32.0468 0.380456C31.3537 0.127225 30.6112 -0.00205389 29.8618 2.46715e-05C29.0862 -0.000677319 28.3186 0.138868 27.6056 0.410161C26.8927 0.681453 26.2494 1.07881 25.7149 1.57804C23.6919 1.13151 21.5738 1.15258 19.5625 1.63927L3.6866 5.47074H3.67771C2.62462 5.72598 1.69475 6.28079 1.03052 7.05021C0.366283 7.81962 0.00430348 8.76122 1.62438e-05 9.73079V10.7321C-0.00408765 13.1564 0.769502 15.5315 2.2302 17.5794V20.9547C2.2302 21.3694 2.63043 21.7249 3.09737 21.7249H5.81006C6.07688 21.7249 6.31924 21.6104 6.47933 21.4366C7.23755 21.8829 8.04469 22.268 8.89407 22.584V22.588H7.29536C5.73001 22.588 4.44704 23.7275 4.44704 25.1199C4.44704 26.5103 5.73001 27.6499 7.29536 27.6499H9.39436C10.5728 31.2246 13.7324 34.1436 17.7881 35.1884V36.4445L16.8765 36.1522C16.863 36.151 16.85 36.1469 16.8387 36.1403C16.8281 36.1341 16.8158 36.1307 16.8031 36.1305L16.732 36.1087C15.4617 35.7028 14.1167 35.5132 12.7674 35.5498C7.01742 35.7216 2.32803 39.9067 2.23242 45.0377C2.20854 46.3199 2.47204 47.5935 3.00759 48.7844C3.54313 49.9754 4.34003 51.0597 5.35189 51.9745C6.36375 52.8893 7.57036 53.6161 8.90148 54.1127C10.2326 54.6093 11.6616 54.8658 13.1054 54.8672H44.3502C50.3759 54.8672 55.4678 51.3655 57.1888 46.5229C62.9699 42.1384 66.7054 35.297 66.7054 28.4853ZM28.6811 4.65112C28.7773 4.44336 28.941 4.26574 29.1513 4.14088C29.3615 4.01602 29.6089 3.94958 29.8618 3.95C30.58 3.95 31.1292 4.45165 31.1292 5.05797C31.1278 5.25243 31.0676 5.44299 30.955 5.60974C30.8423 5.7765 30.6813 5.91333 30.4888 6.00597L28.2876 7.09813L30.7156 10.0251L30.7379 10.0488C31.7029 11.139 33.1837 11.8065 34.7758 11.8065H43.3585C53.8157 11.8065 62.2584 19.2759 62.2584 28.4853C62.2584 34.7934 58.3094 41.2556 52.4972 44.7394L52.0747 44.9922C48.8803 45.595 45.5594 45.3876 42.4914 44.3938L22.2351 37.8764V33.6815C24.7611 33.4978 26.929 32.6841 28.5299 31.2898C30.3621 29.69 31.3382 27.4247 31.3382 24.7486C31.3382 24.4867 31.2211 24.2355 31.0126 24.0503C30.8041 23.8652 30.5213 23.7611 30.2265 23.7611C29.9316 23.7611 29.6488 23.8652 29.4403 24.0503C29.2318 24.2355 29.1147 24.4867 29.1147 24.7486C29.1147 26.9902 28.3076 28.7164 26.9712 29.8796C25.7105 30.9817 23.8806 31.665 21.5503 31.7381L20.2562 31.6117C16.7875 31.272 13.9259 28.7085 13.4211 25.5485H16.2539C18.3862 25.5485 20.2562 24.5551 21.3146 23.0738L21.3213 23.062C21.468 22.8546 21.597 22.6373 21.7104 22.4102L22.5776 20.6762C23.0267 20.1192 23.2446 19.4122 23.2446 18.5847C23.2446 16.7598 21.7082 15.3121 20.105 14.3898C18.4596 13.4457 16.3829 12.8375 14.653 12.8375H11.6957C11.0863 12.8368 10.4909 12.6752 9.98525 12.3731C9.47961 12.071 9.08661 11.6421 8.85627 11.1409L7.69115 8.59518L20.7276 5.45099C22.3919 5.0463 24.1609 5.1478 25.7527 5.73934L27.8429 6.51749L28.6811 4.65112ZM21.0189 18.5847C21.0189 19.2068 20.8343 19.4872 20.6631 19.6373H14.5196C10.0948 19.6373 6.33703 17.1094 4.98291 13.6057C5.74335 13.191 6.37261 12.5985 6.79063 11.8697L6.7973 11.8895C7.19472 12.7536 7.87284 13.4931 8.74522 14.0137C9.6176 14.5343 10.6447 14.8123 11.6957 14.8124H14.653C15.8803 14.8124 17.5435 15.2706 18.8977 16.0488C20.294 16.8506 21.0189 17.7828 21.0189 18.5847Z" fill="black"/>
<path d="M90.673 19.3C92.5263 19.3 93.9196 19.6933 94.853 20.48C95.7996 21.2667 96.273 22.34 96.273 23.7C96.273 25.4467 95.6996 26.8467 94.553 27.9C93.4196 28.94 91.7396 29.6 89.513 29.88C89.2463 29.9067 89.053 29.92 88.933 29.92C88.493 29.92 88.1663 29.84 87.953 29.68C87.7396 29.5333 87.633 29.3267 87.633 29.06C87.633 28.82 87.713 28.62 87.873 28.46C88.033 28.2867 88.2596 28.1733 88.553 28.12C90.193 27.7867 91.393 27.3 92.153 26.66C92.9263 26.02 93.313 25.1667 93.313 24.1C93.313 23.2733 93.053 22.6467 92.533 22.22C92.0263 21.78 91.213 21.56 90.093 21.56C89.1196 21.56 88.053 21.7 86.893 21.98C86.7463 22.86 86.5863 24.02 86.413 25.46C86.253 26.8867 86.1463 27.9667 86.093 28.7C86.0663 29.14 85.9196 29.46 85.653 29.66C85.3863 29.8733 85.033 29.98 84.593 29.98C84.153 29.98 83.813 29.8733 83.573 29.66C83.3463 29.4467 83.233 29.1667 83.233 28.82C83.233 28.0067 83.4596 26.0267 83.913 22.88L83.853 22.9C83.653 22.9667 83.4796 23 83.333 23C83.053 23 82.8196 22.9067 82.633 22.72C82.4596 22.5333 82.373 22.3 82.373 22.02C82.373 21.46 82.6396 21.08 83.173 20.88C83.813 20.64 84.1796 20.5067 84.273 20.48C84.4196 19.6 84.6996 18.14 85.113 16.1C85.153 15.86 85.1996 15.6133 85.253 15.36C85.3196 15.1067 85.3796 14.8333 85.433 14.54C83.9796 14.6333 82.9396 14.8533 82.313 15.2C81.6863 15.5333 81.373 16.0467 81.373 16.74C81.373 17.1933 81.5063 17.6267 81.773 18.04C81.8396 18.1333 81.873 18.2467 81.873 18.38C81.873 18.62 81.753 18.8333 81.513 19.02C81.2863 19.2067 81.0196 19.3 80.713 19.3C80.2596 19.3 79.913 19.1933 79.673 18.98C79.4863 18.82 79.3263 18.5267 79.193 18.1C79.0596 17.66 78.993 17.22 78.993 16.78C78.993 15.1667 79.7063 13.9867 81.133 13.24C82.5596 12.48 84.7796 12.1 87.793 12.1C89.473 12.1 90.7663 12.0867 91.673 12.06C92.593 12.0333 93.473 11.98 94.313 11.9C94.713 11.86 94.9996 11.9267 95.173 12.1C95.3596 12.26 95.453 12.52 95.453 12.88C95.453 13.2933 95.3396 13.6067 95.113 13.82C94.8996 14.0333 94.5196 14.1667 93.973 14.22C93.0263 14.3267 92.153 14.4 91.353 14.44C90.553 14.4667 89.5263 14.48 88.273 14.48C88.0863 15.4267 87.793 16.9533 87.393 19.06C87.3796 19.1933 87.3463 19.3933 87.293 19.66C88.493 19.42 89.6196 19.3 90.673 19.3ZM104.233 29.1C103.046 29.1 101.973 28.8333 101.013 28.3C100.066 27.7667 99.3128 26.9867 98.7528 25.96C98.1928 24.92 97.9128 23.68 97.9128 22.24C97.9128 20.2133 98.2795 18.4267 99.0128 16.88C99.7595 15.3333 100.766 14.14 102.033 13.3C103.313 12.46 104.726 12.04 106.273 12.04C107.459 12.04 108.526 12.3067 109.473 12.84C110.433 13.3733 111.193 14.16 111.753 15.2C112.313 16.2267 112.593 17.46 112.593 18.9C112.593 20.9267 112.219 22.7133 111.473 24.26C110.739 25.8067 109.733 27 108.453 27.84C107.186 28.68 105.779 29.1 104.233 29.1ZM104.433 26.74C105.473 26.74 106.386 26.42 107.173 25.78C107.973 25.14 108.586 24.2533 109.013 23.12C109.439 21.9733 109.653 20.68 109.653 19.24C109.653 17.6533 109.319 16.4533 108.653 15.64C107.986 14.8133 107.126 14.4 106.073 14.4C105.046 14.4 104.139 14.72 103.353 15.36C102.566 15.9867 101.953 16.8733 101.513 18.02C101.073 19.1533 100.853 20.4467 100.853 21.9C100.853 23.4867 101.186 24.6933 101.853 25.52C102.519 26.3333 103.379 26.74 104.433 26.74ZM125.341 19.3C127.194 19.3 128.588 19.6933 129.521 20.48C130.468 21.2667 130.941 22.34 130.941 23.7C130.941 25.4467 130.368 26.8467 129.221 27.9C128.088 28.94 126.408 29.6 124.181 29.88C123.914 29.9067 123.721 29.92 123.601 29.92C123.161 29.92 122.834 29.84 122.621 29.68C122.408 29.5333 122.301 29.3267 122.301 29.06C122.301 28.82 122.381 28.62 122.541 28.46C122.701 28.2867 122.928 28.1733 123.221 28.12C124.861 27.7867 126.061 27.3 126.821 26.66C127.594 26.02 127.981 25.1667 127.981 24.1C127.981 23.2733 127.721 22.6467 127.201 22.22C126.694 21.78 125.881 21.56 124.761 21.56C123.788 21.56 122.721 21.7 121.561 21.98C121.414 22.86 121.254 24.02 121.081 25.46C120.921 26.8867 120.814 27.9667 120.761 28.7C120.734 29.14 120.588 29.46 120.321 29.66C120.054 29.8733 119.701 29.98 119.261 29.98C118.821 29.98 118.481 29.8733 118.241 29.66C118.014 29.4467 117.901 29.1667 117.901 28.82C117.901 28.0067 118.128 26.0267 118.581 22.88L118.521 22.9C118.321 22.9667 118.148 23 118.001 23C117.721 23 117.488 22.9067 117.301 22.72C117.128 22.5333 117.041 22.3 117.041 22.02C117.041 21.46 117.308 21.08 117.841 20.88C118.481 20.64 118.848 20.5067 118.941 20.48C119.088 19.6 119.368 18.14 119.781 16.1C119.821 15.86 119.868 15.6133 119.921 15.36C119.988 15.1067 120.048 14.8333 120.101 14.54C118.648 14.6333 117.608 14.8533 116.981 15.2C116.354 15.5333 116.041 16.0467 116.041 16.74C116.041 17.1933 116.174 17.6267 116.441 18.04C116.508 18.1333 116.541 18.2467 116.541 18.38C116.541 18.62 116.421 18.8333 116.181 19.02C115.954 19.2067 115.688 19.3 115.381 19.3C114.928 19.3 114.581 19.1933 114.341 18.98C114.154 18.82 113.994 18.5267 113.861 18.1C113.728 17.66 113.661 17.22 113.661 16.78C113.661 15.1667 114.374 13.9867 115.801 13.24C117.228 12.48 119.448 12.1 122.461 12.1C124.141 12.1 125.434 12.0867 126.341 12.06C127.261 12.0333 128.141 11.98 128.981 11.9C129.381 11.86 129.668 11.9267 129.841 12.1C130.028 12.26 130.121 12.52 130.121 12.88C130.121 13.2933 130.008 13.6067 129.781 13.82C129.568 14.0333 129.188 14.1667 128.641 14.22C127.694 14.3267 126.821 14.4 126.021 14.44C125.221 14.4667 124.194 14.48 122.941 14.48C122.754 15.4267 122.461 16.9533 122.061 19.06C122.048 19.1933 122.014 19.3933 121.961 19.66C123.161 19.42 124.288 19.3 125.341 19.3ZM147.761 17.08C147.761 18.2133 147.467 19.2533 146.881 20.2C146.294 21.1467 145.441 21.92 144.321 22.52C143.201 23.12 141.867 23.4733 140.321 23.58L139.461 28.4C139.127 30.2533 138.221 31.18 136.741 31.18C135.927 31.18 135.174 30.94 134.481 30.46C133.801 29.98 133.254 29.2467 132.841 28.26C132.427 27.2733 132.221 26.06 132.221 24.62C132.221 21.9133 132.654 19.62 133.521 17.74C134.401 15.8467 135.574 14.4333 137.041 13.5C138.521 12.5533 140.147 12.08 141.921 12.08C143.174 12.08 144.234 12.3 145.101 12.74C145.981 13.18 146.641 13.78 147.081 14.54C147.534 15.2867 147.761 16.1333 147.761 17.08ZM140.681 21.52C143.414 21.1733 144.781 19.7533 144.781 17.26C144.781 16.38 144.487 15.6667 143.901 15.12C143.327 14.56 142.434 14.28 141.221 14.28C139.847 14.28 138.647 14.7133 137.621 15.58C136.607 16.4467 135.821 17.6533 135.261 19.2C134.714 20.7333 134.441 22.4867 134.441 24.46C134.441 25.2867 134.521 26.02 134.681 26.66C134.854 27.3 135.067 27.8 135.321 28.16C135.587 28.5067 135.841 28.68 136.081 28.68C136.414 28.68 136.667 28.22 136.841 27.3L137.501 23.52C136.981 23.44 136.754 23.4067 136.821 23.42C136.421 23.3533 136.161 23.2333 136.041 23.06C135.921 22.8733 135.861 22.64 135.861 22.36C135.861 22.0667 135.941 21.8333 136.101 21.66C136.274 21.4867 136.507 21.4 136.801 21.4C136.934 21.4 137.034 21.4067 137.101 21.42C137.421 21.4733 137.667 21.5067 137.841 21.52C138.014 20.48 138.261 19.0867 138.581 17.34C138.661 16.8867 138.841 16.5667 139.121 16.38C139.414 16.18 139.754 16.08 140.141 16.08C140.581 16.08 140.894 16.1667 141.081 16.34C141.281 16.5 141.381 16.76 141.381 17.12C141.381 17.3333 141.367 17.5067 141.341 17.64L140.681 21.52Z" fill="black"/>
</svg>
