<svg width="58" height="43" viewBox="0 0 58 43" fill="none" xmlns="http://www.w3.org/2000/svg">
<path fill-rule="evenodd" clip-rule="evenodd" d="M29 0C31.4795 0 34.0228 0.0591252 36.4878 0.155875L39.3994 0.284875L42.1863 0.438063L44.7963 0.602L47.1801 0.774C49.767 0.957496 52.2013 1.98054 54.0546 3.66317C55.908 5.34579 57.0616 7.5802 57.3127 9.97331L57.4287 11.1155L57.6462 13.5611C57.8492 16.0954 58 18.8582 58 21.5C58 24.1418 57.8492 26.9046 57.6462 29.4389L57.4287 31.8845C57.391 32.2769 57.3533 32.6558 57.3127 33.0267C57.0615 35.4202 55.9074 37.655 54.0535 39.3376C52.1996 41.0203 49.7647 42.0431 47.1772 42.226L44.7992 42.3953L42.1892 42.5619L39.3994 42.7151L36.4878 42.8441C33.9933 42.9446 31.4968 42.9965 29 43C26.5032 42.9965 24.0067 42.9446 21.5122 42.8441L18.6006 42.7151L15.8137 42.5619L13.2037 42.3953L10.8199 42.226C8.23296 42.0425 5.7987 41.0195 3.94537 39.3368C2.09204 37.6542 0.938366 35.4198 0.6873 33.0267L0.5713 31.8845L0.3538 29.4389C0.132059 26.7974 0.0140477 24.1494 0 21.5C0 18.8582 0.1508 16.0954 0.3538 13.5611L0.5713 11.1155C0.609 10.7231 0.6467 10.3442 0.6873 9.97331C0.938268 7.58063 2.09153 5.34655 3.94427 3.66399C5.797 1.98142 8.23057 0.958101 10.817 0.774L13.1979 0.602L15.8079 0.438063L18.5977 0.284875L21.5093 0.155875C24.0048 0.0554511 26.5022 0.00348108 29 0ZM23.2 14.9828V28.0172C23.2 29.2588 24.65 30.0328 25.81 29.4147L37.99 22.8975C38.255 22.7561 38.4752 22.5525 38.6283 22.3071C38.7813 22.0618 38.8619 21.7834 38.8619 21.5C38.8619 21.2166 38.7813 20.9382 38.6283 20.6929C38.4752 20.4475 38.255 20.2439 37.99 20.1025L25.81 13.588C25.5454 13.4464 25.2453 13.3719 24.9397 13.372C24.6342 13.372 24.3341 13.4466 24.0695 13.5883C23.805 13.7299 23.5853 13.9336 23.4327 14.1789C23.2801 14.4242 23.1998 14.7024 23.2 14.9855V14.9828Z" fill="#F8F8F8"/>
</svg>
