<svg width="28" height="29" viewBox="0 0 28 29" fill="none" xmlns="http://www.w3.org/2000/svg">
<g clip-path="url(#clip0_19_2647)">
<path d="M14 7.03662C15.295 7.03662 16.3333 5.98662 16.3333 4.70329C16.3333 4.25995 16.2167 3.85162 15.995 3.50162L14 0.0366211L12.005 3.50162C11.7833 3.85162 11.6667 4.25995 11.6667 4.70329C11.6667 5.98662 12.7167 7.03662 14 7.03662ZM19.3667 18.6916L18.1183 17.4433L16.8583 18.6916C15.3417 20.2083 12.6817 20.22 11.1533 18.6916L9.905 17.4433L8.63333 18.6916C7.875 19.45 6.86 19.87 5.78667 19.87C4.935 19.87 4.15333 19.6016 3.5 19.1583V24.5366C3.5 25.1783 4.025 25.7033 4.66667 25.7033H23.3333C23.975 25.7033 24.5 25.1783 24.5 24.5366V19.1583C23.8467 19.6016 23.065 19.87 22.2133 19.87C21.14 19.87 20.125 19.45 19.3667 18.6916ZM21 10.5366H15.1667V8.20329H12.8333V10.5366H7C5.06333 10.5366 3.5 12.1 3.5 14.0366V15.8333C3.5 17.0933 4.52667 18.12 5.78667 18.12C6.39333 18.12 6.97667 17.8866 7.39667 17.455L9.89333 14.97L12.3783 17.455C13.2417 18.3183 14.7467 18.3183 15.61 17.455L18.1067 14.97L20.5917 17.455C21.0233 17.8866 21.595 18.12 22.2017 18.12C23.4617 18.12 24.4883 17.0933 24.4883 15.8333V14.0366C24.5 12.1 22.9367 10.5366 21 10.5366Z" fill="white"/>
</g>
<defs>
<clipPath id="clip0_19_2647">
<rect width="28" height="28" fill="white" transform="translate(0 0.0366211)"/>
</clipPath>
</defs>
</svg>
