<svg width="28" height="29" viewBox="0 0 28 29" fill="none" xmlns="http://www.w3.org/2000/svg">
<g clip-path="url(#clip0_19_2661)">
<path d="M10.6654 23.37C11.2176 23.37 11.6654 22.9222 11.6654 22.37V16.37H16.332V22.37C16.332 22.9222 16.7797 23.37 17.332 23.37H21.1654C21.7176 23.37 22.1654 22.9222 22.1654 22.37V14.0366H24.1018C24.6517 14.0366 24.9119 13.3585 24.5032 12.9906L14.6677 4.13869C14.2874 3.79642 13.71 3.79641 13.3297 4.13869L3.49423 12.9906C3.0855 13.3585 3.34572 14.0366 3.89561 14.0366H5.83203V22.37C5.83203 22.9222 6.27975 23.37 6.83203 23.37H10.6654Z" fill="white"/>
</g>
<defs>
<clipPath id="clip0_19_2661">
<rect width="28" height="28" fill="white" transform="translate(0 0.0366211)"/>
</clipPath>
</defs>
</svg>
