<svg width="47" height="47" viewBox="0 0 47 47" fill="none" xmlns="http://www.w3.org/2000/svg">
<path d="M23.5 17.672C22.3473 17.672 21.2205 18.0138 20.2621 18.6542C19.3037 19.2946 18.5567 20.2048 18.1156 21.2697C17.6745 22.3346 17.5591 23.5065 17.784 24.637C18.0089 25.7675 18.5639 26.806 19.379 27.621C20.194 28.4361 21.2325 28.9911 22.363 29.216C23.4935 29.4409 24.6653 29.3255 25.7303 28.8844C26.7952 28.4433 27.7054 27.6963 28.3458 26.7379C28.9862 25.7795 29.328 24.6527 29.328 23.5C29.328 22.7347 29.1773 21.9768 28.8844 21.2697C28.5915 20.5626 28.1622 19.9202 27.621 19.379C27.0798 18.8378 26.4374 18.4085 25.7303 18.1156C25.0232 17.8227 24.2653 17.672 23.5 17.672ZM46.8355 11.9145C46.8231 10.0997 46.489 8.30154 45.8485 6.6035C45.3768 5.36096 44.647 4.23257 43.7072 3.29279C42.7674 2.353 41.639 1.62319 40.3965 1.1515C38.6985 0.51104 36.9003 0.176863 35.0855 0.1645C32.054 -1.48046e-07 31.161 0 23.5 0C15.839 0 14.946 -1.48046e-07 11.9145 0.1645C10.0997 0.176863 8.30154 0.51104 6.6035 1.1515C5.36096 1.62319 4.23257 2.353 3.29279 3.29279C2.353 4.23257 1.62319 5.36096 1.1515 6.6035C0.51104 8.30154 0.176863 10.0997 0.1645 11.9145C-1.5758e-07 14.946 0 15.839 0 23.5C0 31.161 -1.5758e-07 32.054 0.1645 35.0855C0.189795 36.9067 0.52352 38.7104 1.1515 40.42C1.6211 41.6569 2.3503 42.7787 3.29 43.71C4.22575 44.6554 5.35656 45.3852 6.6035 45.8485C8.30154 46.489 10.0997 46.8231 11.9145 46.8355C14.946 47 15.839 47 23.5 47C31.161 47 32.054 47 35.0855 46.8355C36.9003 46.8231 38.6985 46.489 40.3965 45.8485C41.6434 45.3852 42.7742 44.6554 43.71 43.71C44.6497 42.7787 45.3789 41.6569 45.8485 40.42C46.4883 38.7136 46.8224 36.9078 46.8355 35.0855C47 32.054 47 31.161 47 23.5C47 15.839 47 14.946 46.8355 11.9145ZM40.8665 30.7145C40.7911 32.1647 40.4816 33.5931 39.95 34.9445C39.4938 36.0718 38.8156 37.0958 37.9557 37.9557C37.0958 38.8156 36.0718 39.4938 34.9445 39.95C33.5804 40.452 32.1439 40.7297 30.691 40.7725H16.309C14.8561 40.7297 13.4196 40.452 12.0555 39.95C10.8901 39.5169 9.83775 38.8261 8.977 37.929C8.12552 37.0859 7.46793 36.0675 7.05 34.9445C6.54606 33.5818 6.27593 32.1437 6.251 30.691V16.309C6.27593 14.8563 6.54606 13.4182 7.05 12.0555C7.48306 10.8901 8.17394 9.83775 9.071 8.977C9.91778 8.13012 10.9352 7.47322 12.0555 7.05C13.4196 6.54805 14.8561 6.27029 16.309 6.2275H30.691C32.1439 6.27029 33.5804 6.54805 34.9445 7.05C36.1099 7.48306 37.1623 8.17394 38.023 9.071C38.8745 9.91406 39.5321 10.9325 39.95 12.0555C40.4519 13.4196 40.7297 14.8561 40.7725 16.309V23.5C40.7725 28.341 40.937 28.8345 40.8665 30.691V30.7145ZM37.1065 13.2305C36.8267 12.4714 36.3856 11.7821 35.8135 11.21C35.2414 10.6379 34.5521 10.1968 33.793 9.917C32.7507 9.55571 31.653 9.38071 30.55 9.4H16.45C15.3414 9.41084 14.2435 9.61769 13.207 10.011C12.4595 10.2781 11.7775 10.7012 11.2062 11.2523C10.6349 11.8033 10.1874 12.4697 9.8935 13.207C9.55223 14.2536 9.3855 15.3492 9.4 16.45V30.55C9.4233 31.6573 9.62976 32.7531 10.011 33.793C10.2908 34.5521 10.7319 35.2414 11.304 35.8135C11.8761 36.3856 12.5654 36.8267 13.3245 37.1065C14.3272 37.4753 15.3823 37.6815 16.45 37.7175H30.55C31.6586 37.7067 32.7565 37.4998 33.793 37.1065C34.5521 36.8267 35.2414 36.3856 35.8135 35.8135C36.3856 35.2414 36.8267 34.5521 37.1065 33.793C37.4998 32.7565 37.7067 31.6586 37.7175 30.55V16.45C37.7182 15.3403 37.5109 14.2403 37.1065 13.207V13.2305ZM23.5 32.477C22.3222 32.477 21.156 32.2446 20.0682 31.7932C18.9804 31.3418 17.9923 30.6802 17.1606 29.8463C16.3289 29.0124 15.6699 28.0226 15.2213 26.9336C14.7727 25.8446 14.5434 24.6778 14.5465 23.5C14.5465 21.7235 15.0736 19.987 16.061 18.5102C17.0485 17.0334 18.4519 15.8829 20.0936 15.2041C21.7353 14.5254 23.5415 14.349 25.2835 14.6972C27.0255 15.0455 28.625 15.9028 29.8795 17.1607C31.134 18.4185 31.9871 20.0202 32.3309 21.7631C32.6746 23.506 32.4935 25.3117 31.8104 26.9517C31.1273 28.5916 29.9731 29.992 28.4937 30.9755C27.0144 31.9591 25.2765 32.4817 23.5 32.477ZM32.9 16.2855C32.3805 16.2305 31.8998 15.9852 31.5504 15.5969C31.201 15.2085 31.0076 14.7046 31.0076 14.1823C31.0076 13.6599 31.201 13.156 31.5504 12.7676C31.8998 12.3793 32.3805 12.134 32.9 12.079C33.4195 12.134 33.9002 12.3793 34.2496 12.7676C34.599 13.156 34.7924 13.6599 34.7924 14.1823C34.7924 14.7046 34.599 15.2085 34.2496 15.5969C33.9002 15.9852 33.4195 16.2305 32.9 16.2855Z" fill="#F8F8F8"/>
</svg>
