<svg width="16" height="18" viewBox="0 0 16 18" fill="none" xmlns="http://www.w3.org/2000/svg">
<path fill-rule="evenodd" clip-rule="evenodd" d="M13.6663 10.6391C13.3623 11.0633 12.7074 11.936 12.1027 12.4692C11.9818 12.5758 11.9981 12.7547 12.1368 12.8418L15.3317 14.8474C15.524 14.968 15.7838 14.8248 15.7513 14.6154C15.6027 13.6569 15.1745 11.6585 14.092 10.6095C13.9711 10.4924 13.7627 10.5047 13.6663 10.6391Z" fill="#52FF00"/>
<path fill-rule="evenodd" clip-rule="evenodd" d="M5.17775 12.488L4.82632 17.1785C4.80162 17.5081 5.09464 17.7351 5.35672 17.5882C7.21233 16.5488 13.0249 12.7311 15.971 4.34048C16.1061 3.95558 15.7431 3.60826 15.4331 3.82537C13.6929 5.04405 9.88974 7.56297 7.53946 8.04276C7.53946 8.04276 9.04456 6.99737 9.94545 5.39258C10.0338 5.23525 10.0264 5.03388 9.92796 4.89187L6.64263 0.156556C6.44793 -0.124146 6.04835 -0.00784509 5.97803 0.349957L4.95525 5.55426L0.154622 9.7441C-0.0860782 9.95409 -0.0369767 10.3785 0.240922 10.4909L5.17775 12.488Z" fill="#52FF00"/>
<mask id="mask0_286_184" style="mask-type:alpha" maskUnits="userSpaceOnUse" x="0" y="0" width="16" height="18">
<path fill-rule="evenodd" clip-rule="evenodd" d="M5.17775 12.488L4.82632 17.1785C4.80162 17.5081 5.09464 17.7351 5.35672 17.5882C7.21233 16.5488 13.0249 12.7311 15.971 4.34048C16.1061 3.95558 15.7431 3.60826 15.4331 3.82537C13.6929 5.04405 9.88974 7.56297 7.53946 8.04276C7.53946 8.04276 9.04456 6.99737 9.94545 5.39258C10.0338 5.23525 10.0264 5.03388 9.92796 4.89187L6.64263 0.156556C6.44793 -0.124146 6.04835 -0.00784509 5.97803 0.349957L4.95525 5.55426L0.154622 9.7441C-0.0860782 9.95409 -0.0369767 10.3785 0.240922 10.4909L5.17775 12.488Z" fill="white"/>
</mask>
<g mask="url(#mask0_286_184)">
<rect x="14.916" y="1.5415" width="6.06449" height="19.9756" rx="3.03224" transform="rotate(48.4393 14.916 1.5415)" fill="#8AF295"/>
</g>
</svg>
